<svg width="18" height="18" viewBox="0 0 18 18" fill="none" xmlns="http://www.w3.org/2000/svg">
<path d="M8.80023 1.27583C8.65914 1.1146 8.45977 1.01603 8.24599 1.00179C8.03222 0.987549 7.82154 1.05882 7.66031 1.19991C7.49908 1.34101 7.4005 1.54037 7.38626 1.75415C7.37202 1.96793 7.44329 2.1786 7.58439 2.33983L8.32477 3.1863C4.77577 3.52553 2 6.5156 2 10.154C2 14.0201 5.13385 17.154 9 17.154C12.8662 17.154 16 14.0201 16 10.154V9.88476C16 9.67055 15.9149 9.4651 15.7634 9.31363C15.612 9.16216 15.4065 9.07707 15.1923 9.07707C14.9781 9.07707 14.7727 9.16216 14.6212 9.31363C14.4697 9.4651 14.3846 9.67055 14.3846 9.88476V10.154C14.3846 13.1279 11.9739 15.5386 9 15.5386C6.02608 15.5386 3.61538 13.1279 3.61538 10.154C3.61538 7.43422 5.63192 5.18507 8.25154 4.82107L7.58439 5.58353C7.51452 5.66336 7.46107 5.75617 7.42707 5.85667C7.39308 5.95716 7.37921 6.06336 7.38626 6.16921C7.4005 6.38299 7.49908 6.58235 7.66031 6.72345C7.82154 6.86455 8.03222 6.93581 8.24599 6.92157C8.45977 6.90734 8.65914 6.80876 8.80023 6.64753L10.6848 4.49368C10.8137 4.34643 10.8848 4.15738 10.8848 3.96168C10.8848 3.76598 10.8137 3.57693 10.6848 3.42968L8.80023 1.27583ZM12.5587 7.72607C12.6301 7.80452 12.6853 7.89627 12.7212 7.99607C12.7572 8.09587 12.7731 8.20177 12.7681 8.30772C12.7631 8.41367 12.7373 8.5176 12.6921 8.61357C12.6469 8.70955 12.5833 8.79568 12.5048 8.86707L9.54331 11.5594C9.38966 11.699 9.18816 11.7741 8.98061 11.7691C8.77306 11.7641 8.57542 11.6793 8.42869 11.5325L7.08254 10.1863C6.93548 10.0339 6.85417 9.82983 6.8561 9.61806C6.85804 9.40628 6.94308 9.20374 7.09291 9.05406C7.24273 8.90438 7.44535 8.81953 7.65713 8.81779C7.8689 8.81605 8.07289 8.89756 8.22515 9.04476L9.02638 9.84599L11.4182 7.67168C11.4967 7.60033 11.5885 7.54514 11.6883 7.50925C11.7881 7.47337 11.894 7.4575 12 7.46255C12.1059 7.4676 12.2099 7.49347 12.3058 7.53869C12.4018 7.5839 12.4879 7.64757 12.5592 7.72607H12.5587Z" fill="url(#paint0_linear_434_63)"/>
<defs>
<linearGradient id="paint0_linear_434_63" x1="9" y1="1" x2="9" y2="17.154" gradientUnits="userSpaceOnUse">
<stop stop-color="#24BCAC"/>
<stop offset="1" stop-color="#0494D4"/>
</linearGradient>
</defs>
</svg>
