<svg width="16" height="14" viewBox="0 0 16 14" fill="none" xmlns="http://www.w3.org/2000/svg">
<path fill-rule="evenodd" clip-rule="evenodd" d="M0.5 6.99996C0.5 6.75132 0.598772 6.51287 0.774588 6.33705C0.950403 6.16124 1.18886 6.06246 1.4375 6.06246H12.2994L8.27375 2.03871C8.09771 1.86268 7.99882 1.62392 7.99882 1.37496C7.99882 1.12601 8.09771 0.887251 8.27375 0.711214C8.44979 0.535176 8.68855 0.436279 8.9375 0.436279C9.18645 0.436279 9.42521 0.535176 9.60125 0.711214L15.2262 6.33621C15.3136 6.4233 15.3828 6.52675 15.4301 6.64065C15.4773 6.75455 15.5017 6.87665 15.5017 6.99996C15.5017 7.12328 15.4773 7.24538 15.4301 7.35928C15.3828 7.47317 15.3136 7.57663 15.2262 7.66371L9.60125 13.2887C9.42521 13.4648 9.18645 13.5636 8.9375 13.5636C8.68855 13.5636 8.44979 13.4648 8.27375 13.2887C8.09771 13.1127 7.99882 12.8739 7.99882 12.625C7.99882 12.376 8.09771 12.1373 8.27375 11.9612L12.2994 7.93746H1.4375C1.18886 7.93746 0.950403 7.83869 0.774588 7.66288C0.598772 7.48706 0.5 7.2486 0.5 6.99996Z" fill="white"/>
</svg>
