<svg width="31" height="30" viewBox="0 0 31 30" fill="none" xmlns="http://www.w3.org/2000/svg">
<g clip-path="url(#clip0_236_3739)">
<path d="M0.5 0.9375C0.5 0.68886 0.598772 0.450403 0.774587 0.274587C0.950403 0.0987721 1.18886 0 1.4375 0L7.0625 0C7.31114 0 7.5496 0.0987721 7.72541 0.274587C7.90123 0.450403 8 0.68886 8 0.9375C8 1.18614 7.90123 1.4246 7.72541 1.60041C7.5496 1.77623 7.31114 1.875 7.0625 1.875H2.375V6.5625C2.375 6.81114 2.27623 7.0496 2.10041 7.22541C1.9246 7.40123 1.68614 7.5 1.4375 7.5C1.18886 7.5 0.950403 7.40123 0.774587 7.22541C0.598772 7.0496 0.5 6.81114 0.5 6.5625V0.9375ZM23 0.9375C23 0.68886 23.0988 0.450403 23.2746 0.274587C23.4504 0.0987721 23.6889 0 23.9375 0L29.5625 0C29.8111 0 30.0496 0.0987721 30.2254 0.274587C30.4012 0.450403 30.5 0.68886 30.5 0.9375V6.5625C30.5 6.81114 30.4012 7.0496 30.2254 7.22541C30.0496 7.40123 29.8111 7.5 29.5625 7.5C29.3139 7.5 29.0754 7.40123 28.8996 7.22541C28.7238 7.0496 28.625 6.81114 28.625 6.5625V1.875H23.9375C23.6889 1.875 23.4504 1.77623 23.2746 1.60041C23.0988 1.4246 23 1.18614 23 0.9375ZM1.4375 22.5C1.68614 22.5 1.9246 22.5988 2.10041 22.7746C2.27623 22.9504 2.375 23.1889 2.375 23.4375V28.125H7.0625C7.31114 28.125 7.5496 28.2238 7.72541 28.3996C7.90123 28.5754 8 28.8139 8 29.0625C8 29.3111 7.90123 29.5496 7.72541 29.7254C7.5496 29.9012 7.31114 30 7.0625 30H1.4375C1.18886 30 0.950403 29.9012 0.774587 29.7254C0.598772 29.5496 0.5 29.3111 0.5 29.0625V23.4375C0.5 23.1889 0.598772 22.9504 0.774587 22.7746C0.950403 22.5988 1.18886 22.5 1.4375 22.5ZM29.5625 22.5C29.8111 22.5 30.0496 22.5988 30.2254 22.7746C30.4012 22.9504 30.5 23.1889 30.5 23.4375V29.0625C30.5 29.3111 30.4012 29.5496 30.2254 29.7254C30.0496 29.9012 29.8111 30 29.5625 30H23.9375C23.6889 30 23.4504 29.9012 23.2746 29.7254C23.0988 29.5496 23 29.3111 23 29.0625C23 28.8139 23.0988 28.5754 23.2746 28.3996C23.4504 28.2238 23.6889 28.125 23.9375 28.125H28.625V23.4375C28.625 23.1889 28.7238 22.9504 28.8996 22.7746C29.0754 22.5988 29.3139 22.5 29.5625 22.5ZM8 7.5H9.875V9.375H8V7.5Z" fill="#009EF7"/>
<path d="M13.625 3.75H4.25V13.125H13.625V3.75ZM6.125 5.625H11.75V11.25H6.125V5.625ZM9.875 20.625H8V22.5H9.875V20.625Z" fill="#009EF7"/>
<path d="M13.625 16.875H4.25V26.25H13.625V16.875ZM6.125 18.75H11.75V24.375H6.125V18.75ZM21.125 7.5H23V9.375H21.125V7.5Z" fill="#009EF7"/>
<path d="M17.375 3.75H26.75V13.125H17.375V3.75ZM19.25 5.625V11.25H24.875V5.625H19.25ZM15.5 15V18.75H17.375V20.625H15.5V22.5H19.25V18.75H21.125V22.5H23V20.625H26.75V18.75H21.125V15H15.5ZM19.25 18.75H17.375V16.875H19.25V18.75ZM26.75 22.5H24.875V24.375H21.125V26.25H26.75V22.5ZM19.25 26.25V24.375H15.5V26.25H19.25Z" fill="#009EF7"/>
<path d="M23 16.875H26.75V15H23V16.875Z" fill="#009EF7"/>
</g>
<defs>
<clipPath id="clip0_236_3739">
<rect width="30" height="30" fill="white" transform="translate(0.5)"/>
</clipPath>
</defs>
</svg>
