<svg width="34" height="25" viewBox="0 0 34 25" fill="none" xmlns="http://www.w3.org/2000/svg">
<path d="M30.2085 0H11.4045C10.4635 0 9.58162 0.417108 8.98442 1.14642L0.235013 11.8408C-0.0783376 12.2243 -0.0783376 12.7757 0.235013 13.1592L8.98545 23.8546C9.58152 24.583 10.4635 25 11.4045 25H30.2084C31.9317 25 33.3334 23.5982 33.3334 21.875V3.12499C33.3335 1.40172 31.9317 0 30.2085 0ZM31.2502 21.875C31.2502 22.4498 30.7832 22.9166 30.2085 22.9166H11.4045C11.0902 22.9166 10.7962 22.7773 10.5978 22.5352L2.38754 12.4999L10.5968 2.46578C10.7962 2.22264 11.0901 2.08326 11.4045 2.08326H30.2084C30.7832 2.08326 31.2501 2.55022 31.2501 3.12488C31.2502 3.12499 31.2502 21.875 31.2502 21.875Z" fill="#09090A"/>
<path d="M23.2214 6.55518L18.7495 11.027L14.2777 6.55518L12.8047 8.02814L17.2766 12.5L12.8047 16.9719L14.2777 18.4448L18.7495 13.973L23.2214 18.4448L24.6943 16.9719L20.2225 12.5L24.6943 8.02814L23.2214 6.55518Z" fill="#09090A"/>
</svg>
