<svg width="40" height="40" viewBox="0 0 40 40" fill="none" xmlns="http://www.w3.org/2000/svg">
<path d="M13.3334 34.1667C10.6812 34.1667 8.13767 33.1131 6.26231 31.2378C4.38694 29.3624 3.33337 26.8189 3.33337 24.1667C3.33337 18.6434 8.33337 9.16671 13.3334 9.16671C18.3334 9.16671 23.3334 18.6434 23.3334 24.1667C23.3334 26.8189 22.2798 29.3624 20.4044 31.2378C18.5291 33.1131 15.9855 34.1667 13.3334 34.1667ZM24.3534 30.565C25.8516 28.7699 26.6705 26.5049 26.6667 24.1667C26.6667 19.97 23.78 13.4917 20.2 10.6217C22.0217 7.87837 24.345 5.83337 26.6667 5.83337C31.6667 5.83337 36.6667 15.31 36.6667 20.8334C36.6671 22.3436 36.3255 23.8342 35.6675 25.1935C35.0095 26.5528 34.0521 27.7454 32.8673 28.6818C31.6825 29.6182 30.301 30.2741 28.8264 30.6003C27.3519 30.9265 25.8226 30.9144 24.3534 30.565Z" fill="url(#paint0_linear_2_3972)"/>
<defs>
<linearGradient id="paint0_linear_2_3972" x1="-5.00529" y1="17.607" x2="42.2004" y2="17.8493" gradientUnits="userSpaceOnUse">
<stop stop-color="#24BCAC"/>
<stop offset="1" stop-color="#0494D4"/>
</linearGradient>
</defs>
</svg>
