<svg width="24" height="24" viewBox="0 0 24 24" fill="none" xmlns="http://www.w3.org/2000/svg">
<path d="M22.1482 9.65625H16.1482C16.0451 9.65625 15.9607 9.74062 15.9607 9.84375V10.9688C15.9607 11.0719 16.0451 11.1562 16.1482 11.1562H22.1482C22.2514 11.1562 22.3357 11.0719 22.3357 10.9688V9.84375C22.3357 9.74062 22.2514 9.65625 22.1482 9.65625ZM19.0076 12.8438H16.1482C16.0451 12.8438 15.9607 12.9281 15.9607 13.0312V14.1562C15.9607 14.2594 16.0451 14.3438 16.1482 14.3438H19.0076C19.1107 14.3438 19.1951 14.2594 19.1951 14.1562V13.0312C19.1951 12.9281 19.1107 12.8438 19.0076 12.8438ZM11.1865 7.55859H10.1717C10.0264 7.55859 9.90918 7.67578 9.90918 7.82109V13.6336C9.90918 13.718 9.94902 13.7953 10.017 13.8445L13.5068 16.3898C13.624 16.4742 13.7881 16.4508 13.8725 16.3336L14.4748 15.5109V15.5086C14.5592 15.3914 14.5334 15.2273 14.4162 15.143L11.4467 12.9961V7.82109C11.449 7.67578 11.3295 7.55859 11.1865 7.55859Z" fill="white"/>
<path d="M18.8625 15.7945H17.5078C17.3766 15.7945 17.2524 15.8625 17.182 15.975C16.8844 16.4461 16.5375 16.882 16.1391 17.2805C15.4524 17.9672 14.6531 18.5062 13.7649 18.8812C12.8438 19.2703 11.8664 19.4672 10.8586 19.4672C9.84845 19.4672 8.87111 19.2703 7.95236 18.8812C7.06408 18.5062 6.26486 17.9672 5.57814 17.2805C4.89142 16.5937 4.35236 15.7945 3.97736 14.9062C3.5883 13.9875 3.39142 13.0101 3.39142 12C3.39142 10.9898 3.5883 10.0148 3.97736 9.09374C4.35236 8.20546 4.89142 7.40624 5.57814 6.71952C6.26486 6.0328 7.06408 5.49374 7.95236 5.11874C8.87111 4.72968 9.8508 4.5328 10.8586 4.5328C11.8688 4.5328 12.8461 4.72968 13.7649 5.11874C14.6531 5.49374 15.4524 6.0328 16.1391 6.71952C16.5375 7.11796 16.8844 7.5539 17.182 8.02499C17.2524 8.13749 17.3766 8.20546 17.5078 8.20546H18.8625C19.0242 8.20546 19.1274 8.03671 19.0547 7.89374C17.5266 4.8539 14.4281 2.87811 10.9688 2.83827C5.90392 2.77499 1.69689 6.92108 1.68752 11.9812C1.67814 17.0508 5.78673 21.1641 10.8563 21.1641C14.3602 21.1641 17.5102 19.1812 19.0547 16.1062C19.1274 15.9633 19.0219 15.7945 18.8625 15.7945Z" fill="white"/>
</svg>
