<svg width="29" height="26" viewBox="0 0 29 26" fill="none" xmlns="http://www.w3.org/2000/svg">
<g filter="url(#filter0_d_476_3555)">
<path d="M23.1384 0.292787C22.9446 0.105315 22.6818 0 22.4078 0C22.1338 0 21.871 0.105315 21.6772 0.292787L5.52933 15.9218C5.43064 16.014 5.35192 16.1244 5.29776 16.2464C5.24361 16.3684 5.2151 16.4996 5.21391 16.6324C5.21271 16.7652 5.23886 16.8969 5.29082 17.0197C5.34277 17.1426 5.4195 17.2543 5.51652 17.3482C5.61355 17.4421 5.72892 17.5163 5.85591 17.5666C5.98291 17.6169 6.11897 17.6422 6.25618 17.641C6.39339 17.6399 6.52898 17.6123 6.65505 17.5599C6.78112 17.5075 6.89514 17.4313 6.99047 17.3358L23.1373 1.70679C23.331 1.51926 23.4399 1.26495 23.4399 0.999787C23.4399 0.734623 23.331 0.480314 23.1373 0.292787H23.1384ZM7.2116 12.3128L9.85693 9.75279C9.7815 9.4454 9.74233 9.13072 9.74016 8.81479C9.74016 6.43579 11.7965 4.50579 14.3333 4.50579C14.6289 4.50579 14.9161 4.53779 15.1962 4.58779L16.4393 3.38579C15.7432 3.27419 15.0389 3.21734 14.3333 3.21579C7.55467 3.21479 4 8.04579 4 8.81479C4 9.23779 5.09223 10.9058 7.2116 12.3128ZM21.4582 5.31979L18.8108 7.87979C18.8821 8.18179 18.9255 8.49279 18.9255 8.81479C18.9255 11.1938 16.8702 13.1218 14.3333 13.1218C14.0399 13.1218 13.7547 13.0898 13.4767 13.0408L12.2326 14.2438C12.896 14.3478 13.5924 14.4138 14.3333 14.4138C21.112 14.4138 24.6667 9.58079 24.6667 8.81479C24.6667 8.39079 23.5755 6.72479 21.4582 5.31979Z" fill="#7E8299"/>
<path d="M22.4078 0.5C22.5448 0.5 22.6737 0.549324 22.7707 0.6338L22.7896 0.652035C22.8878 0.747154 22.9399 0.872589 22.9399 0.999787C22.9399 1.12698 22.8878 1.2524 22.7896 1.34752C22.7896 1.34753 22.7896 1.34753 22.7896 1.34754L6.64272 16.9765L6.64267 16.9765L6.63656 16.9826C6.58815 17.0311 6.52934 17.0707 6.46312 17.0982C6.39688 17.1257 6.32505 17.1404 6.25198 17.1411C6.1789 17.1417 6.10678 17.1282 6.03998 17.1017C5.9732 17.0753 5.9136 17.0367 5.86424 16.9889C5.81491 16.9412 5.77682 16.8853 5.75135 16.825C5.7259 16.7648 5.71331 16.7009 5.71389 16.6369C5.71446 16.5728 5.72819 16.5091 5.75476 16.4492C5.78135 16.3894 5.82049 16.3341 5.87075 16.2871L5.87081 16.2871L5.87707 16.2811L22.0249 0.65214C22.0249 0.652115 22.0249 0.65209 22.025 0.652065C22.1238 0.556476 22.2612 0.5 22.4078 0.5ZM9.24015 8.81479L9.24018 8.81822C9.24194 9.07566 9.26557 9.33231 9.31073 9.58558L7.15798 11.6689C6.3028 11.0583 5.6467 10.4167 5.19519 9.87475C4.94079 9.56939 4.75616 9.30145 4.63821 9.09443C4.57905 8.99059 4.54048 8.90874 4.51803 8.8501C4.51234 8.83523 4.50827 8.82337 4.50539 8.8143C4.50725 8.8084 4.50958 8.80137 4.51251 8.79316C4.52953 8.74546 4.55943 8.67756 4.6065 8.5899C4.7004 8.41502 4.84866 8.18724 5.05505 7.92358C5.46699 7.39734 6.09166 6.75213 6.92492 6.12635C8.5886 4.87691 11.0687 3.71543 14.3327 3.71579C14.6678 3.71654 15.0026 3.73024 15.3362 3.75683L15.0278 4.05506C14.8041 4.02445 14.5724 4.00579 14.3333 4.00579C11.5508 4.00579 9.24016 6.13011 9.24015 8.81479ZM19.4255 8.81479C19.4255 8.55023 19.3998 8.29465 19.356 8.04806L21.5117 5.96355C22.3659 6.57317 23.0213 7.21388 23.4722 7.75521C23.7264 8.06023 23.9108 8.32792 24.0286 8.5348C24.0877 8.63857 24.1262 8.72039 24.1486 8.77903C24.1543 8.79394 24.1584 8.80584 24.1612 8.81493C24.1594 8.82073 24.1571 8.82761 24.1542 8.83563C24.1372 8.8832 24.1073 8.951 24.0603 9.03857C23.9664 9.21328 23.8181 9.44094 23.6117 9.70452C23.1997 10.2306 22.575 10.8758 21.7417 11.5018C20.0779 12.7516 17.5976 13.9138 14.3333 13.9138C13.9918 13.9138 13.6597 13.8992 13.3355 13.8728L13.6454 13.5732C13.8667 13.6032 14.0962 13.6218 14.3333 13.6218C17.1157 13.6218 19.4255 11.4996 19.4255 8.81479Z" stroke="black"/>
</g>
<defs>
<filter id="filter0_d_476_3555" x="0" y="0" width="28.666" height="25.6411" filterUnits="userSpaceOnUse" color-interpolation-filters="sRGB">
<feFlood flood-opacity="0" result="BackgroundImageFix"/>
<feColorMatrix in="SourceAlpha" type="matrix" values="0 0 0 0 0 0 0 0 0 0 0 0 0 0 0 0 0 0 127 0" result="hardAlpha"/>
<feOffset dy="4"/>
<feGaussianBlur stdDeviation="2"/>
<feComposite in2="hardAlpha" operator="out"/>
<feColorMatrix type="matrix" values="0 0 0 0 0 0 0 0 0 0 0 0 0 0 0 0 0 0 0.25 0"/>
<feBlend mode="normal" in2="BackgroundImageFix" result="effect1_dropShadow_476_3555"/>
<feBlend mode="normal" in="SourceGraphic" in2="effect1_dropShadow_476_3555" result="shape"/>
</filter>
</defs>
</svg>
