<svg width="22" height="18" viewBox="0 0 22 18" fill="none" xmlns="http://www.w3.org/2000/svg">
<path d="M19.6052 0.292787C19.4114 0.105315 19.1486 0 18.8746 0C18.6006 0 18.3378 0.105315 18.144 0.292787L1.99613 15.9218C1.89744 16.014 1.81871 16.1244 1.76456 16.2464C1.7104 16.3684 1.6819 16.4996 1.6807 16.6324C1.67951 16.7652 1.70566 16.8969 1.75761 17.0197C1.80957 17.1426 1.8863 17.2543 1.98332 17.3482C2.08034 17.4421 2.19572 17.5163 2.32271 17.5666C2.4497 17.6169 2.58577 17.6422 2.72298 17.641C2.86018 17.6399 2.99578 17.6123 3.12185 17.5599C3.24792 17.5075 3.36194 17.4313 3.45726 17.3358L19.6041 1.70679C19.7978 1.51926 19.9067 1.26495 19.9067 0.999787C19.9067 0.734623 19.7978 0.480314 19.6041 0.292787H19.6052ZM3.6784 12.3128L6.32373 9.75279C6.2483 9.4454 6.20913 9.13072 6.20696 8.81479C6.20696 6.43579 8.26329 4.50579 10.8001 4.50579C11.0957 4.50579 11.3829 4.53779 11.663 4.58779L12.9061 3.38579C12.21 3.27419 11.5057 3.21734 10.8001 3.21579C4.02146 3.21479 0.466797 8.04579 0.466797 8.81479C0.466797 9.23779 1.55903 10.9048 3.6784 12.3118V12.3128ZM17.925 5.31979L15.2776 7.87979C15.3489 8.18179 15.3923 8.49279 15.3923 8.81479C15.3923 11.1938 13.337 13.1218 10.8001 13.1218C10.5067 13.1218 10.2215 13.0898 9.94349 13.0408L8.69936 14.2438C9.36276 14.3478 10.0592 14.4138 10.8001 14.4138C17.5788 14.4138 21.1335 9.58079 21.1335 8.81479C21.1335 8.39079 20.0423 6.72479 17.925 5.31979Z" fill="#F5F8FA"/>
</svg>
