<svg width="21" height="19" viewBox="0 0 21 19" fill="none" xmlns="http://www.w3.org/2000/svg">
<path d="M2.57374 13.4444C2.26414 13.7684 1.91374 14.06 1.54534 14.2988C1.47918 14.3439 1.40466 14.3753 1.32618 14.3911C1.24769 14.407 1.16683 14.407 1.08836 14.3911C1.00988 14.3752 0.935382 14.3438 0.869245 14.2986C0.803108 14.2535 0.746671 14.1956 0.703262 14.1283C0.659852 14.061 0.630346 13.9858 0.616483 13.9069C0.602621 13.828 0.604681 13.7472 0.622544 13.6692C0.640406 13.5911 0.673709 13.5174 0.720491 13.4524C0.767272 13.3875 0.826586 13.3325 0.894936 13.2908C1.77454 12.722 2.43574 11.8172 2.58694 11.144C2.61794 10.9984 2.70196 10.8695 2.82267 10.7824C2.94338 10.6953 3.09216 10.6562 3.2401 10.6727C3.38805 10.6891 3.52459 10.76 3.62321 10.8715C3.72183 10.983 3.77548 11.1272 3.77374 11.276V18.2C3.77374 18.3591 3.71052 18.5118 3.598 18.6243C3.48548 18.7368 3.33287 18.8 3.17374 18.8C3.01461 18.8 2.86199 18.7368 2.74947 18.6243C2.63695 18.5118 2.57374 18.3591 2.57374 18.2V13.4444ZM8.10334 11.8772C7.34734 11.8772 6.79054 12.5276 6.79054 13.1648C6.79054 13.3239 6.72732 13.4766 6.6148 13.5891C6.50228 13.7016 6.34967 13.7648 6.19054 13.7648C6.03141 13.7648 5.87879 13.7016 5.76627 13.5891C5.65375 13.4766 5.59054 13.3239 5.59054 13.1648C5.59054 11.9144 6.63454 10.6772 8.10334 10.6772C8.96854 10.6772 9.80734 11.0684 10.2777 11.768C10.7697 12.5 10.7913 13.4636 10.2093 14.42C9.91414 14.906 9.50974 15.2744 9.11014 15.5792C8.90974 15.7328 8.70214 15.8756 8.50534 16.01L8.42134 16.0676C8.25334 16.1828 8.09254 16.292 7.93894 16.4036C7.42174 16.7804 7.05214 17.1308 6.88774 17.6H9.99214C10.1513 17.6 10.3039 17.6632 10.4164 17.7757C10.5289 17.8883 10.5921 18.0409 10.5921 18.2C10.5921 18.3591 10.5289 18.5118 10.4164 18.6243C10.3039 18.7368 10.1513 18.8 9.99214 18.8H6.19054C6.03141 18.8 5.87879 18.7368 5.76627 18.6243C5.65375 18.5118 5.59054 18.3591 5.59054 18.2C5.59054 16.7996 6.43414 16.0136 7.23214 15.434C7.40254 15.3092 7.58014 15.1892 7.74694 15.074L7.82854 15.0188C8.02414 14.8856 8.20894 14.7572 8.38054 14.6252C8.72854 14.3612 9.00094 14.0984 9.18454 13.7972C9.55774 13.1816 9.47734 12.7292 9.28174 12.4376C9.06574 12.1148 8.62774 11.8772 8.10334 11.8772ZM13.4733 12.1892C13.3138 12.3256 13.1964 12.5045 13.1349 12.7052C13.1136 12.7818 13.0772 12.8535 13.0279 12.9159C12.9786 12.9784 12.9174 13.0304 12.8478 13.0689C12.7782 13.1075 12.7016 13.1318 12.6226 13.1405C12.5435 13.1492 12.4634 13.1421 12.3871 13.1196C12.3108 13.0971 12.2398 13.0596 12.1781 13.0094C12.1164 12.9591 12.0653 12.8971 12.0278 12.827C11.9903 12.7568 11.9671 12.6799 11.9596 12.6007C11.9521 12.5215 11.9605 12.4416 11.9841 12.3656C12.1116 11.9422 12.3582 11.5643 12.6945 11.2772C13.1133 10.9208 13.7025 10.6772 14.4873 10.6772C16.0773 10.6772 17.0157 11.8004 17.0157 12.8504C17.0157 13.2644 16.9317 13.898 16.4901 14.4344C16.4121 14.5304 16.3257 14.6192 16.2297 14.702C16.3797 14.8124 16.5213 14.948 16.6425 15.1124C16.8825 15.4364 17.0145 15.8396 17.0145 16.3124C17.0145 17.168 16.7157 17.8244 16.1925 18.2516C15.6885 18.662 15.0561 18.8 14.4885 18.8C13.9485 18.8 13.4217 18.7136 12.9693 18.4364C12.5037 18.1508 12.1869 17.7092 11.9913 17.1344C11.9401 16.9837 11.9508 16.8188 12.0211 16.676C12.0915 16.5333 12.2156 16.4243 12.3663 16.373C12.517 16.3218 12.6819 16.3325 12.8247 16.4028C12.9675 16.4731 13.0765 16.5973 13.1277 16.748C13.2537 17.1176 13.4193 17.3048 13.5957 17.4128C13.7865 17.5292 14.0637 17.6 14.4873 17.6C14.8833 17.6 15.2133 17.5016 15.4341 17.3216C15.6333 17.1596 15.8157 16.8716 15.8157 16.3124C15.8248 16.1387 15.7759 15.9668 15.6765 15.824C15.5768 15.6989 15.4467 15.6013 15.2985 15.5408C14.9385 15.3776 14.4801 15.338 14.1657 15.338C14.0066 15.338 13.854 15.2748 13.7415 15.1623C13.629 15.0498 13.5657 14.8971 13.5657 14.738C13.5657 14.5789 13.629 14.4263 13.7415 14.3137C13.854 14.2012 14.0066 14.138 14.1657 14.138C15.0201 14.138 15.3897 13.8836 15.5637 13.6724C15.7557 13.4396 15.8157 13.1288 15.8157 12.8504C15.8157 12.5144 15.4677 11.8772 14.4873 11.8772C13.9653 11.8772 13.6581 12.0332 13.4733 12.1892ZM1.40014 7.10001C1.40014 6.86132 1.49496 6.6324 1.66374 6.46362C1.83252 6.29483 2.06144 6.20001 2.30014 6.20001H19.7001C19.9388 6.20001 20.1678 6.29483 20.3365 6.46362C20.5053 6.6324 20.6001 6.86132 20.6001 7.10001C20.6001 7.33871 20.5053 7.56762 20.3365 7.73641C20.1678 7.90519 19.9388 8.00001 19.7001 8.00001H2.30014C2.06144 8.00001 1.83252 7.90519 1.66374 7.73641C1.49496 7.56762 1.40014 7.33871 1.40014 7.10001ZM1.40014 1.10001C1.40014 0.861317 1.49496 0.632399 1.66374 0.463616C1.83252 0.294833 2.06144 0.200012 2.30014 0.200012H19.7001C19.9388 0.200012 20.1678 0.294833 20.3365 0.463616C20.5053 0.632399 20.6001 0.861317 20.6001 1.10001C20.6001 1.33871 20.5053 1.56763 20.3365 1.73641C20.1678 1.90519 19.9388 2.00001 19.7001 2.00001H2.30014C2.06144 2.00001 1.83252 1.90519 1.66374 1.73641C1.49496 1.56763 1.40014 1.33871 1.40014 1.10001ZM18.2001 13.1C18.2001 12.8613 18.295 12.6324 18.4637 12.4636C18.6325 12.2948 18.8614 12.2 19.1001 12.2H19.7001C19.9388 12.2 20.1678 12.2948 20.3365 12.4636C20.5053 12.6324 20.6001 12.8613 20.6001 13.1C20.6001 13.3387 20.5053 13.5676 20.3365 13.7364C20.1678 13.9052 19.9388 14 19.7001 14H19.1001C18.8614 14 18.6325 13.9052 18.4637 13.7364C18.295 13.5676 18.2001 13.3387 18.2001 13.1Z" fill="white"/>
</svg>
