<svg width="24" height="24" viewBox="0 0 24 24" fill="none" xmlns="http://www.w3.org/2000/svg">
<path d="M8.99967 21.3333C9.92015 21.3333 10.6663 20.5871 10.6663 19.6667C10.6663 18.7462 9.92015 18 8.99967 18C8.0792 18 7.33301 18.7462 7.33301 19.6667C7.33301 20.5871 8.0792 21.3333 8.99967 21.3333Z" fill="white"/>
<path d="M17.6667 21.3333C18.5871 21.3333 19.3333 20.5871 19.3333 19.6667C19.3333 18.7462 18.5871 18 17.6667 18C16.7462 18 16 18.7462 16 19.6667C16 20.5871 16.7462 21.3333 17.6667 21.3333Z" fill="white"/>
<path d="M22.067 4.25985C22.0049 4.17918 21.9251 4.1138 21.8338 4.06873C21.7425 4.02366 21.6421 4.0001 21.5403 3.99985H6.14032L5.84032 3.04652C5.80736 2.94416 5.75014 2.85129 5.67352 2.77583C5.5969 2.70038 5.50317 2.64458 5.40032 2.61319L2.66698 1.77319C2.58294 1.74736 2.49463 1.73834 2.4071 1.74664C2.31956 1.75495 2.23453 1.78041 2.15683 1.82158C1.99993 1.90472 1.88248 2.04678 1.83032 2.21652C1.77816 2.38626 1.79556 2.56977 1.87871 2.72667C1.96185 2.88358 2.10391 3.00103 2.27365 3.05319L4.66698 3.78652L7.72032 13.4332L6.63365 14.3265L6.54698 14.4132C6.27825 14.7244 6.12599 15.1193 6.11627 15.5303C6.10654 15.9413 6.23994 16.343 6.49365 16.6665C6.67536 16.8875 6.90626 17.0629 7.16788 17.1786C7.4295 17.2944 7.71458 17.3473 8.00032 17.3332H19.127C19.3038 17.3332 19.4734 17.263 19.5984 17.1379C19.7234 17.0129 19.7936 16.8433 19.7936 16.6665C19.7936 16.4897 19.7234 16.3201 19.5984 16.1951C19.4734 16.0701 19.3038 15.9999 19.127 15.9999H7.89365C7.81688 15.9972 7.74209 15.9749 7.67649 15.9349C7.61089 15.8949 7.55671 15.8387 7.51918 15.7717C7.48165 15.7047 7.46204 15.6291 7.46223 15.5523C7.46243 15.4755 7.48244 15.4 7.52032 15.3332L9.12698 13.9999H19.4137C19.5659 14.0043 19.7152 13.9564 19.8365 13.8642C19.9578 13.7721 20.0438 13.6411 20.0803 13.4932L22.2136 4.82652C22.2339 4.72713 22.2313 4.62443 22.2058 4.52623C22.1804 4.42803 22.1329 4.33693 22.067 4.25985Z" fill="white"/>
</svg>
