<svg width="19" height="15" viewBox="0 0 19 15" fill="none" xmlns="http://www.w3.org/2000/svg">
<path d="M12 3.75L13.125 4.875L6.75 11.25L5.625 10.125L12 3.75ZM1.875 0H16.875C17.9156 0 18.75 0.834375 18.75 1.875V5.625C18.2527 5.625 17.7758 5.82254 17.4242 6.17418C17.0725 6.52581 16.875 7.00272 16.875 7.5C16.875 7.99728 17.0725 8.47419 17.4242 8.82582C17.7758 9.17746 18.2527 9.375 18.75 9.375V13.125C18.75 14.1656 17.9156 15 16.875 15H1.875C1.37772 15 0.900805 14.8025 0.549175 14.4508C0.197544 14.0992 0 13.6223 0 13.125V9.375C1.04062 9.375 1.875 8.54063 1.875 7.5C1.875 7.00272 1.67746 6.52581 1.32583 6.17418C0.974194 5.82254 0.497281 5.625 0 5.625V1.875C0 1.37772 0.197544 0.900805 0.549175 0.549175C0.900805 0.197544 1.37772 0 1.875 0V0ZM1.875 1.875V4.25625C2.4447 4.58475 2.91783 5.05749 3.2468 5.62692C3.57577 6.19635 3.74897 6.84238 3.74897 7.5C3.74897 8.15762 3.57577 8.80365 3.2468 9.37308C2.91783 9.94251 2.4447 10.4153 1.875 10.7438V13.125H16.875V10.7438C16.3053 10.4153 15.8322 9.94251 15.5032 9.37308C15.1742 8.80365 15.001 8.15762 15.001 7.5C15.001 6.84238 15.1742 6.19635 15.5032 5.62692C15.8322 5.05749 16.3053 4.58475 16.875 4.25625V1.875H1.875ZM7.03125 3.75C7.80937 3.75 8.4375 4.37813 8.4375 5.15625C8.4375 5.93437 7.80937 6.5625 7.03125 6.5625C6.25312 6.5625 5.625 5.93437 5.625 5.15625C5.625 4.37813 6.25312 3.75 7.03125 3.75ZM11.7187 8.4375C12.4969 8.4375 13.125 9.06563 13.125 9.84375C13.125 10.6219 12.4969 11.25 11.7187 11.25C10.9406 11.25 10.3125 10.6219 10.3125 9.84375C10.3125 9.06563 10.9406 8.4375 11.7187 8.4375Z" fill="url(#paint0_linear_2926_5561)"/>
<defs>
<linearGradient id="paint0_linear_2926_5561" x1="-4.6905" y1="6.23311" x2="21.8626" y2="6.37793" gradientUnits="userSpaceOnUse">
<stop stop-color="#24BCAC"/>
<stop offset="1" stop-color="#0494D4"/>
</linearGradient>
</defs>
</svg>
