<svg width="20" height="20" viewBox="0 0 20 20" fill="none" xmlns="http://www.w3.org/2000/svg">
<path d="M5.58268 16.0834L3.29102 15.5834C3.08268 15.5418 2.91602 15.434 2.79102 15.2601C2.66602 15.0868 2.6174 14.8959 2.64518 14.6876L2.87435 12.3334L1.31185 10.5418C1.17296 10.389 1.10352 10.2084 1.10352 10.0001C1.10352 9.79176 1.17296 9.6112 1.31185 9.45843L2.87435 7.66676L2.64518 5.31259C2.6174 5.10426 2.66602 4.91342 2.79102 4.74009C2.91602 4.5662 3.08268 4.45842 3.29102 4.41676L5.58268 3.91676L6.79102 1.87509C6.90213 1.69453 7.0549 1.57648 7.24935 1.52092C7.44379 1.46537 7.63824 1.47231 7.83268 1.54176L9.99935 2.45842L12.166 1.54176C12.3605 1.47231 12.5549 1.46537 12.7493 1.52092C12.9438 1.57648 13.0966 1.69453 13.2077 1.87509L14.416 3.91676L16.7077 4.41676C16.916 4.45842 17.0827 4.5662 17.2077 4.74009C17.3327 4.91342 17.3813 5.10426 17.3535 5.31259L17.1243 7.66676L18.6868 9.45843C18.8257 9.6112 18.8952 9.79176 18.8952 10.0001C18.8952 10.2084 18.8257 10.389 18.6868 10.5418L17.1243 12.3334L17.3535 14.6876C17.3813 14.8959 17.3327 15.0868 17.2077 15.2601C17.0827 15.434 16.916 15.5418 16.7077 15.5834L14.416 16.0834L13.2077 18.1251C13.0966 18.3056 12.9438 18.4237 12.7493 18.4793C12.5549 18.5348 12.3605 18.5279 12.166 18.4584L9.99935 17.5418L7.83268 18.4584C7.63824 18.5279 7.44379 18.5348 7.24935 18.4793C7.0549 18.4237 6.90213 18.3056 6.79102 18.1251L5.58268 16.0834ZM8.54102 12.3751C8.69379 12.5279 8.88824 12.6043 9.12435 12.6043C9.36046 12.6043 9.5549 12.5279 9.70768 12.3751L13.2493 8.83343C13.416 8.66676 13.4993 8.4687 13.4993 8.23926C13.4993 8.01037 13.416 7.81259 13.2493 7.64592C13.0827 7.47926 12.8849 7.39592 12.656 7.39592C12.4266 7.39592 12.2285 7.47926 12.0618 7.64592L9.12435 10.5834L7.91602 9.39592C7.74935 9.24315 7.55157 9.17009 7.32268 9.17676C7.09324 9.18398 6.90213 9.26398 6.74935 9.41676C6.59657 9.56954 6.52018 9.76398 6.52018 10.0001C6.52018 10.2362 6.59657 10.4306 6.74935 10.5834L8.54102 12.3751Z" fill="url(#paint0_linear_3661_4412)"/>
<defs>
<linearGradient id="paint0_linear_3661_4412" x1="-3.34725" y1="8.56154" x2="21.8489" y2="8.67638" gradientUnits="userSpaceOnUse">
<stop stop-color="#24BCAC"/>
<stop offset="1" stop-color="#0494D4"/>
</linearGradient>
</defs>
</svg>
