<svg width="100" height="100" viewBox="0 0 100 100" fill="none" xmlns="http://www.w3.org/2000/svg">
<path d="M50 9.375C41.9652 9.375 34.1107 11.7576 27.43 16.2215C20.7492 20.6855 15.5422 27.0302 12.4674 34.4535C9.3926 41.8767 8.58809 50.0451 10.1556 57.9255C11.7231 65.806 15.5923 73.0447 21.2738 78.7262C26.9553 84.4077 34.194 88.2769 42.0745 89.8444C49.955 91.4119 58.1233 90.6074 65.5465 87.5326C72.9698 84.4578 79.3145 79.2508 83.7785 72.57C88.2424 65.8893 90.625 58.0349 90.625 50C90.6147 39.2288 86.3312 28.9016 78.7148 21.2852C71.0984 13.6688 60.7713 9.38534 50 9.375ZM50 84.375C43.2013 84.375 36.5552 82.3589 30.9023 78.5818C25.2494 74.8046 20.8434 69.436 18.2417 63.1547C15.6399 56.8735 14.9592 49.9619 16.2855 43.2938C17.6119 36.6257 20.8858 30.5006 25.6932 25.6932C30.5007 20.8858 36.6257 17.6119 43.2938 16.2855C49.9619 14.9591 56.8736 15.6399 63.1548 18.2416C69.436 20.8434 74.8046 25.2493 78.5818 30.9023C82.359 36.5552 84.375 43.2013 84.375 50C84.3647 59.1136 80.7397 67.8511 74.2954 74.2954C67.8511 80.7397 59.1137 84.3647 50 84.375ZM64.7266 60.2734C65.3134 60.8659 65.6426 61.6661 65.6426 62.5C65.6426 63.3339 65.3134 64.1341 64.7266 64.7266C64.1293 65.3041 63.3309 65.627 62.5 65.627C61.6691 65.627 60.8708 65.3041 60.2735 64.7266L50 54.4141L39.7266 64.7266C39.1293 65.3041 38.3309 65.627 37.5 65.627C36.6691 65.627 35.8708 65.3041 35.2735 64.7266C34.6866 64.1341 34.3574 63.3339 34.3574 62.5C34.3574 61.6661 34.6866 60.8659 35.2735 60.2734L45.586 50L35.2735 39.7266C34.7751 39.1194 34.5205 38.3486 34.559 37.564C34.5975 36.7795 34.9265 36.0373 35.4819 35.4819C36.0373 34.9265 36.7795 34.5975 37.564 34.559C38.3486 34.5205 39.1194 34.7751 39.7266 35.2734L50 45.5859L60.2735 35.2734C60.8806 34.7751 61.6515 34.5205 62.436 34.559C63.2205 34.5975 63.9627 34.9265 64.5181 35.4819C65.0735 36.0373 65.4025 36.7795 65.441 37.564C65.4796 38.3486 65.2249 39.1194 64.7266 39.7266L54.4141 50L64.7266 60.2734Z" fill="#B91C1C"/>
</svg>
