<svg width="20" height="20" viewBox="0 0 20 20" fill="none" xmlns="http://www.w3.org/2000/svg">
<path d="M5.82852 10.0001C5.82852 12.3009 7.70018 14.1726 10.001 14.1726C12.3018 14.1726 14.1735 12.3009 14.1735 10.0001C14.1735 7.69925 12.3018 5.82758 10.001 5.82758C7.70018 5.82758 5.82852 7.69925 5.82852 10.0001ZM9.16601 15.8334H10.8327V18.3334H9.16601V15.8334ZM9.16601 1.66675H10.8327V4.16675H9.16601V1.66675ZM1.66602 9.16675H4.16602V10.8334H1.66602V9.16675ZM15.8327 9.16675H18.3327V10.8334H15.8327V9.16675ZM4.69685 16.4817L3.51852 15.3034L5.28601 13.5359L6.46435 14.7142L4.69685 16.4817ZM13.5343 5.28675L15.3027 3.51841L16.481 4.69675L14.7127 6.46508L13.5343 5.28675ZM5.28601 6.46591L3.51852 4.69758L4.69768 3.51925L6.46435 5.28758L5.28601 6.46591ZM16.481 15.3034L15.3027 16.4817L13.5343 14.7134L14.7127 13.5351L16.481 15.3034Z" fill="url(#paint0_linear_3404_3101)"/>
<defs>
<linearGradient id="paint0_linear_3404_3101" x1="-2.50332" y1="8.59242" x2="21.0997" y2="8.69541" gradientUnits="userSpaceOnUse">
<stop stop-color="#24BCAC"/>
<stop offset="1" stop-color="#0494D4"/>
</linearGradient>
</defs>
</svg>
