<svg width="30" height="30" viewBox="0 0 30 30" fill="none" xmlns="http://www.w3.org/2000/svg">
<path d="M16.819 9.13236C17.0831 8.88593 17.4346 8.7497 17.7993 8.7524C18.1639 8.75511 18.5133 8.89654 18.7736 9.14686C19.0339 9.39717 19.1847 9.7368 19.1944 10.0941C19.204 10.4513 19.0717 10.7983 18.8252 11.0617L11.344 20.2309C11.2153 20.3667 11.0601 20.4756 10.8875 20.5513C10.7149 20.6269 10.5285 20.6677 10.3395 20.6711C10.1504 20.6745 9.96262 20.6406 9.78728 20.5712C9.61194 20.5019 9.45267 20.3986 9.31898 20.2676L4.35773 15.4056C4.21957 15.2794 4.10875 15.1273 4.03189 14.9582C3.95503 14.7892 3.91371 14.6067 3.91038 14.4216C3.90704 14.2366 3.94178 14.0528 4.0125 13.8812C4.08323 13.7096 4.1885 13.5537 4.32204 13.4229C4.45557 13.292 4.61464 13.1888 4.78974 13.1195C4.96484 13.0502 5.1524 13.0162 5.34121 13.0194C5.53003 13.0227 5.71624 13.0632 5.88874 13.1385C6.06124 13.2138 6.21649 13.3224 6.34523 13.4578L10.2715 17.3037L16.7815 9.17279C16.7932 9.1586 16.8057 9.1451 16.819 9.13236V9.13236ZM15.094 18.5771L16.819 20.2676C16.9526 20.3984 17.1118 20.5014 17.287 20.5705C17.4621 20.6397 17.6497 20.6736 17.8385 20.6701C18.0273 20.6667 18.2135 20.626 18.3859 20.5506C18.5583 20.4751 18.7135 20.3664 18.8421 20.2309L26.3271 11.0617C26.4616 10.9316 26.5679 10.7763 26.6397 10.6051C26.7116 10.4338 26.7475 10.2501 26.7453 10.065C26.7431 9.87981 26.7028 9.69699 26.6269 9.52742C26.551 9.35785 26.441 9.20501 26.3035 9.07803C26.166 8.95104 26.0038 8.85252 25.8265 8.78834C25.6493 8.72416 25.4607 8.69564 25.272 8.70448C25.0832 8.71333 24.8982 8.75936 24.7281 8.83982C24.5579 8.92028 24.406 9.03352 24.2815 9.17279L17.7696 17.3037L16.8602 16.4107L15.0921 18.5771H15.094Z" fill="#343434"/>
</svg>
