<svg width="20" height="27" viewBox="0 0 20 27" fill="none" xmlns="http://www.w3.org/2000/svg">
<path d="M18.6234 5.9715L14.3993 1.71095C13.9462 1.25392 13.3319 0.994934 12.6925 0.994934H2.41667C1.08247 1.00001 0 2.09181 0 3.43751V24.5625C0 25.9082 1.08247 27 2.41667 27H16.9167C18.2509 27 19.3333 25.9082 19.3333 24.5625V7.69806C19.3333 7.05314 19.0766 6.42853 18.6234 5.9715ZM16.7203 7.50001H12.8889V3.63556L16.7203 7.50001ZM2.41667 24.5625V3.43751H10.4722V8.71876C10.4722 9.39415 11.0109 9.93751 11.6806 9.93751H16.9167V24.5625H2.41667ZM15.0135 17.2652C14.3993 16.6559 12.6472 16.8234 11.7712 16.9352C10.9052 16.402 10.3262 15.6656 9.9184 14.584C10.1148 13.7664 10.4269 12.5223 10.1903 11.7402C9.97882 10.4098 8.28715 10.5418 8.04549 11.4406C7.82396 12.2582 8.02535 13.3957 8.39792 14.8481C7.89444 16.0617 7.14427 17.6918 6.61562 18.6262C5.60868 19.1492 4.24931 19.9566 4.04792 20.9723C3.88177 21.7746 5.35694 23.7754 7.87934 19.3879C9.00712 19.0121 10.2356 18.55 11.3231 18.3672C12.2747 18.8852 13.3873 19.2305 14.1325 19.2305C15.4163 19.2305 15.5422 17.7984 15.0135 17.2652ZM5.03976 21.216C5.29653 20.5203 6.27326 19.718 6.57031 19.4387C5.61372 20.9774 5.03976 21.2516 5.03976 21.216ZM9.14809 11.5371C9.52066 11.5371 9.48542 13.1672 9.23872 13.609C9.01719 12.9031 9.02222 11.5371 9.14809 11.5371ZM7.91962 18.4738C8.40799 17.6156 8.82587 16.5949 9.16319 15.6961C9.58108 16.4629 10.1148 17.0774 10.6786 17.4988C9.63142 17.7172 8.72014 18.1641 7.91962 18.4738ZM14.5453 18.2199C14.5453 18.2199 14.2936 18.5246 12.6674 17.8238C14.4345 17.6918 14.7266 18.0981 14.5453 18.2199Z" fill="#23BBAC"/>
</svg>
