<svg width="16" height="12" viewBox="0 0 16 12" fill="none" xmlns="http://www.w3.org/2000/svg">
<g clip-path="url(#clip0_3075_5758)">
<path d="M2.73101 5.25C3.54563 5.25 4.20793 4.57734 4.20793 3.75C4.20793 2.92266 3.54563 2.25 2.73101 2.25C1.91639 2.25 1.25409 2.92266 1.25409 3.75C1.25409 4.57734 1.91639 5.25 2.73101 5.25ZM13.0695 5.25C13.8841 5.25 14.5464 4.57734 14.5464 3.75C14.5464 2.92266 13.8841 2.25 13.0695 2.25C12.2549 2.25 11.5925 2.92266 11.5925 3.75C11.5925 4.57734 12.2549 5.25 13.0695 5.25ZM13.8079 6H12.331C11.9249 6 11.5579 6.16641 11.2902 6.43594C12.2202 6.95391 12.8802 7.88906 13.0233 9H14.5464C14.9549 9 15.2849 8.66484 15.2849 8.25V7.5C15.2849 6.67266 14.6225 6 13.8079 6ZM7.90024 6C9.3287 6 10.4849 4.82578 10.4849 3.375C10.4849 1.92422 9.3287 0.75 7.90024 0.75C6.47178 0.75 5.31563 1.92422 5.31563 3.375C5.31563 4.82578 6.47178 6 7.90024 6ZM9.67255 6.75H9.48101C9.00101 6.98438 8.46793 7.125 7.90024 7.125C7.33255 7.125 6.80178 6.98438 6.31947 6.75H6.12793C4.66024 6.75 3.46947 7.95938 3.46947 9.45V10.125C3.46947 10.7461 3.96563 11.25 4.57716 11.25H11.2233C11.8349 11.25 12.331 10.7461 12.331 10.125V9.45C12.331 7.95938 11.1402 6.75 9.67255 6.75ZM4.51024 6.43594C4.24255 6.16641 3.87563 6 3.46947 6H1.99255C1.17793 6 0.515625 6.67266 0.515625 7.5V8.25C0.515625 8.66484 0.845625 9 1.25409 9H2.77486C2.92024 7.88906 3.58024 6.95391 4.51024 6.43594Z" fill="#23BBAC"/>
</g>
<defs>
<clipPath id="clip0_3075_5758">
<rect width="14.7692" height="12" fill="white" transform="translate(0.515625)"/>
</clipPath>
</defs>
</svg>
