<svg width="16" height="16" viewBox="0 0 16 16" fill="none" xmlns="http://www.w3.org/2000/svg">
<path d="M1.8125 14.7148C1.8125 15.026 2.06387 15.2773 2.375 15.2773H7.40234V8.66797H1.8125V14.7148ZM8.59766 15.2773H13.625C13.9361 15.2773 14.1875 15.026 14.1875 14.7148V8.66797H8.59766V15.2773ZM14.4688 4.44922H11.8742C12.1133 4.07305 12.2539 3.62656 12.2539 3.14844C12.2539 1.81074 11.1658 0.722656 9.82812 0.722656C9.10039 0.722656 8.44473 1.04609 8 1.55586C7.55527 1.04609 6.89961 0.722656 6.17188 0.722656C4.83418 0.722656 3.74609 1.81074 3.74609 3.14844C3.74609 3.62656 3.88496 4.07305 4.12578 4.44922H1.53125C1.22012 4.44922 0.96875 4.70059 0.96875 5.01172V7.47266H7.40234V4.44922H8.59766V7.47266H15.0312V5.01172C15.0312 4.70059 14.7799 4.44922 14.4688 4.44922ZM7.40234 4.37891H6.17188C5.49336 4.37891 4.94141 3.82695 4.94141 3.14844C4.94141 2.46992 5.49336 1.91797 6.17188 1.91797C6.85039 1.91797 7.40234 2.46992 7.40234 3.14844V4.37891ZM9.82812 4.37891H8.59766V3.14844C8.59766 2.46992 9.14961 1.91797 9.82812 1.91797C10.5066 1.91797 11.0586 2.46992 11.0586 3.14844C11.0586 3.82695 10.5066 4.37891 9.82812 4.37891Z" fill="url(#paint0_linear_698_4422)"/>
<defs>
<linearGradient id="paint0_linear_698_4422" x1="-2.54912" y1="6.77072" x2="17.3659" y2="6.85468" gradientUnits="userSpaceOnUse">
<stop stop-color="#24BCAC"/>
<stop offset="1" stop-color="#0494D4"/>
</linearGradient>
</defs>
</svg>
