<svg width="12" height="20" viewBox="0 0 12 20" fill="none" xmlns="http://www.w3.org/2000/svg">
<path d="M11.4762 0.526183C11.6422 0.691892 11.774 0.888723 11.8638 1.10541C11.9537 1.3221 12 1.55438 12 1.78897C12 2.02356 11.9537 2.25584 11.8638 2.47253C11.774 2.68922 11.6422 2.88605 11.4762 3.05176L4.52637 10.0016L11.4762 16.9514C11.8111 17.2863 11.9992 17.7405 11.9992 18.2141C11.9992 18.6878 11.8111 19.142 11.4762 19.4769C11.1413 19.8119 10.687 20 10.2134 20C9.73975 20 9.28552 19.8119 8.9506 19.4769L0.729056 11.2554C0.563006 11.0897 0.43127 10.8928 0.341385 10.6762C0.2515 10.4595 0.205235 10.2272 0.205235 9.9926C0.205235 9.75802 0.2515 9.52573 0.341385 9.30904C0.43127 9.09236 0.563006 8.89553 0.729056 8.72982L8.9506 0.508271C9.63126 -0.17238 10.7776 -0.17238 11.4762 0.526183Z" fill="#09090A"/>
</svg>
