<svg width="14" height="14" viewBox="0 0 14 14" fill="none" xmlns="http://www.w3.org/2000/svg">
<path d="M11.0002 1.50278C12.7502 2.75277 13.8891 4.79722 13.8891 7.1111C13.8891 10.9111 10.8113 13.9916 7.0141 14C3.22244 14.0083 0.116889 10.9167 0.111333 7.12221C0.108555 4.80833 1.24744 2.75833 2.99466 1.50555C3.31966 1.275 3.77244 1.37222 3.96688 1.71944L4.40577 2.5C4.56966 2.79166 4.49188 3.16111 4.22244 3.36111C3.06966 4.21666 2.33355 5.57222 2.33355 7.10832C2.33077 9.67221 4.40299 11.7778 7.00021 11.7778C9.54465 11.7778 11.6835 9.71665 11.6669 7.08055C11.6585 5.64166 10.9808 4.25277 9.77521 3.35833C9.50577 3.15833 9.43077 2.78889 9.59465 2.5L10.0335 1.71944C10.228 1.375 10.678 1.27222 11.0002 1.50278ZM8.11132 7.33332V0.666666C8.11132 0.297222 7.8141 0 7.44466 0H6.55577C6.18633 0 5.8891 0.297222 5.8891 0.666666V7.33332C5.8891 7.70277 6.18633 7.99999 6.55577 7.99999H7.44466C7.8141 7.99999 8.11132 7.70277 8.11132 7.33332Z" fill="white"/>
</svg>
