<svg width="25" height="24" viewBox="0 0 25 24" fill="none" xmlns="http://www.w3.org/2000/svg">
<path d="M16.5 7C16.5 8.06087 16.0786 9.07828 15.3284 9.82843C14.5783 10.5786 13.5609 11 12.5 11C11.4391 11 10.4217 10.5786 9.67157 9.82843C8.92143 9.07828 8.5 8.06087 8.5 7C8.5 5.93913 8.92143 4.92172 9.67157 4.17157C10.4217 3.42143 11.4391 3 12.5 3C13.5609 3 14.5783 3.42143 15.3284 4.17157C16.0786 4.92172 16.5 5.93913 16.5 7V7ZM12.5 14C10.6435 14 8.86301 14.7375 7.55025 16.0503C6.2375 17.363 5.5 19.1435 5.5 21H19.5C19.5 19.1435 18.7625 17.363 17.4497 16.0503C16.137 14.7375 14.3565 14 12.5 14V14Z" stroke="url(#paint0_linear_4116_3047)" stroke-width="2" stroke-linecap="round" stroke-linejoin="round"/>
<defs>
<linearGradient id="paint0_linear_4116_3047" x1="1.99776" y1="10.4797" x2="21.8244" y2="10.547" gradientUnits="userSpaceOnUse">
<stop stop-color="#24BCAC"/>
<stop offset="1" stop-color="#0494D4"/>
</linearGradient>
</defs>
</svg>
