<svg width="22" height="20" viewBox="0 0 22 20" fill="none" xmlns="http://www.w3.org/2000/svg">
<path d="M10.9228 0C9.43332 0 8.26967 0.525794 7.43184 1.57738C6.59402 2.62897 6.1751 3.97321 6.1751 5.61012C6.16476 7.64385 6.84743 9.25595 8.22312 10.4464C8.55393 10.745 8.30847 11.2584 8.1093 11.657L8.05245 11.7708C7.93868 12.0089 7.77059 12.1949 7.54821 12.3289C7.32582 12.4628 6.85778 12.6538 6.14407 12.9018C6.11304 12.9117 5.45881 13.1151 4.18138 13.5119C2.90395 13.9087 2.22386 14.127 2.14112 14.1667C1.50302 14.4217 1.02671 14.6847 0.712183 14.9558C0.506627 15.1329 0.450031 15.1763 0.363563 15.4336C-0.407313 17.7266 1.96113 20 4.3803 20H17.4653C19.8845 20 22.2529 17.7266 21.482 15.4336C21.3956 15.1763 21.339 15.1329 21.1334 14.9558C20.8189 14.6847 20.3426 14.4217 19.7045 14.1667C19.6217 14.127 18.9416 13.9087 17.6642 13.5119C16.3868 13.1151 15.7325 12.9117 15.7015 12.9018C14.9878 12.6538 14.5198 12.4628 14.2974 12.3289C14.075 12.1949 13.9069 12.0089 13.7931 11.7708L13.7363 11.657C13.5371 11.2584 13.2917 10.745 13.6225 10.4464C14.9982 9.25595 15.6808 7.64385 15.6705 5.61012C15.6705 3.97321 15.2516 2.62897 14.4137 1.57738C13.5759 0.525794 12.4123 0 10.9228 0Z" fill="#F5F8FA"/>
</svg>
