<svg width="22" height="24" viewBox="0 0 22 24" fill="none" xmlns="http://www.w3.org/2000/svg">
<path d="M10.9659 10.9783C8.1548 10.9783 7.58514 6.71827 7.58514 6.71827C7.25077 4.50155 8.26625 2 10.9288 2C13.6037 2 14.6192 4.50155 14.2848 6.71827C14.2848 6.71827 13.7771 10.9783 10.9659 10.9783ZM10.9659 14.161L14.3344 11.9071C17.2941 11.9071 19.9319 14.7926 19.9319 17.517V20.6006C19.9319 20.6006 15.4118 22 10.9659 22C6.44582 22 2 20.6006 2 20.6006V17.517C2 14.7306 4.40248 11.969 7.5356 11.969L10.9659 14.161Z" fill="#9D6E36"/>
</svg>
