<svg width="18" height="20" viewBox="0 0 18 20" fill="none" xmlns="http://www.w3.org/2000/svg">
<path d="M8.96594 8.97833C6.1548 8.97833 5.58514 4.71827 5.58514 4.71827C5.25077 2.50155 6.26625 0 8.92879 0C11.6037 0 12.6192 2.50155 12.2848 4.71827C12.2848 4.71827 11.7771 8.97833 8.96594 8.97833ZM8.96594 12.161L12.3344 9.90712C15.2941 9.90712 17.9319 12.7926 17.9319 15.517V18.6006C17.9319 18.6006 13.4118 20 8.96594 20C4.44582 20 0 18.6006 0 18.6006V15.517C0 12.7306 2.40248 9.96904 5.5356 9.96904L8.96594 12.161Z" fill="#BDBDBD"/>
</svg>
