<svg width="34" height="34" viewBox="0 0 34 34" fill="none" xmlns="http://www.w3.org/2000/svg">
<path d="M19.2929 23.7071C19.6834 24.0976 20.3166 24.0976 20.7071 23.7071C21.0976 23.3166 21.0976 22.6834 20.7071 22.2929L19.2929 23.7071ZM14 17L13.2929 16.2929C12.9024 16.6834 12.9024 17.3166 13.2929 17.7071L14 17ZM20.7071 11.7071C21.0976 11.3166 21.0976 10.6834 20.7071 10.2929C20.3166 9.90237 19.6834 9.90237 19.2929 10.2929L20.7071 11.7071ZM20.7071 22.2929L14.7071 16.2929L13.2929 17.7071L19.2929 23.7071L20.7071 22.2929ZM14.7071 17.7071L20.7071 11.7071L19.2929 10.2929L13.2929 16.2929L14.7071 17.7071Z" fill="#EFDF9B"/>
</svg>
