<svg width="19" height="19" viewBox="0 0 19 19" fill="none" xmlns="http://www.w3.org/2000/svg">
<path d="M2.84936 16.0467C1.95793 15.1857 1.24689 14.1558 0.757743 13.0171C0.268593 11.8784 0.0111213 10.6537 0.000352396 9.41443C-0.0104166 8.17516 0.225733 6.94615 0.695021 5.79912C1.16431 4.65209 1.85734 3.61 2.73367 2.73367C3.61 1.85734 4.65209 1.16431 5.79912 0.695021C6.94615 0.225733 8.17516 -0.0104166 9.41443 0.000352396C10.6537 0.0111213 11.8784 0.268593 13.0171 0.757743C14.1558 1.24689 15.1857 1.95793 16.0467 2.84936C17.7468 4.60964 18.6876 6.96726 18.6663 9.41443C18.645 11.8616 17.6635 14.2025 15.933 15.933C14.2025 17.6635 11.8616 18.645 9.41443 18.6663C6.96726 18.6876 4.60964 17.7468 2.84936 16.0467V16.0467ZM8.51469 10.3814V14.1147H10.3814V8.51469H8.51469V10.3814ZM8.51469 4.78136V6.64802H10.3814V4.78136H8.51469Z" fill="url(#paint0_linear_2_10593)"/>
<defs>
<linearGradient id="paint0_linear_2_10593" x1="-4.66965" y1="7.75676" x2="21.7657" y2="7.8721" gradientUnits="userSpaceOnUse">
<stop stop-color="#24BCAC"/>
<stop offset="1" stop-color="#0494D4"/>
</linearGradient>
</defs>
</svg>
