<svg width="17" height="17" viewBox="0 0 17 17" fill="none" xmlns="http://www.w3.org/2000/svg">
<path d="M11.7284 3.50652L13.4934 5.27069L11.7284 3.50652ZM12.8634 1.95236L8.09085 6.72486C7.84426 6.9711 7.67608 7.28484 7.60752 7.62652L7.16669 9.83319L9.37335 9.39152C9.71502 9.32319 10.0284 9.15569 10.275 8.90902L15.0475 4.13652C15.1909 3.99311 15.3047 3.82285 15.3823 3.63547C15.4599 3.44809 15.4999 3.24726 15.4999 3.04444C15.4999 2.84162 15.4599 2.64079 15.3823 2.45341C15.3047 2.26603 15.1909 2.09577 15.0475 1.95236C14.9041 1.80894 14.7338 1.69518 14.5465 1.61756C14.3591 1.53995 14.1583 1.5 13.9554 1.5C13.7526 1.5 13.5518 1.53995 13.3644 1.61756C13.177 1.69518 13.0068 1.80894 12.8634 1.95236V1.95236Z" stroke="white" stroke-width="2" stroke-linecap="round" stroke-linejoin="round"/>
<path d="M13.8333 11.4998V13.9998C13.8333 14.4419 13.6577 14.8658 13.3452 15.1783C13.0326 15.4909 12.6087 15.6665 12.1667 15.6665H3.00001C2.55798 15.6665 2.13406 15.4909 1.8215 15.1783C1.50894 14.8658 1.33334 14.4419 1.33334 13.9998V4.83317C1.33334 4.39114 1.50894 3.96722 1.8215 3.65466C2.13406 3.3421 2.55798 3.1665 3.00001 3.1665H5.50001" stroke="white" stroke-width="2" stroke-linecap="round" stroke-linejoin="round"/>
</svg>
