<svg width="21" height="19" viewBox="0 0 21 19" fill="none" xmlns="http://www.w3.org/2000/svg">
<path d="M19.1384 1.02113C18.9446 0.837481 18.6818 0.734314 18.4078 0.734314C18.1338 0.734314 17.871 0.837481 17.6772 1.02113L1.52933 16.3313C1.43064 16.4217 1.35192 16.5298 1.29776 16.6493C1.24361 16.7688 1.2151 16.8974 1.21391 17.0275C1.21271 17.1575 1.23886 17.2865 1.29082 17.4069C1.34277 17.5273 1.4195 17.6367 1.51652 17.7286C1.61355 17.8206 1.72892 17.8934 1.85591 17.9426C1.98291 17.9919 2.11897 18.0167 2.25618 18.0155C2.39339 18.0144 2.52898 17.9874 2.65505 17.936C2.78112 17.8847 2.89514 17.8101 2.99047 17.7165L19.1373 2.40629C19.331 2.22258 19.4399 1.97346 19.4399 1.71371C19.4399 1.45395 19.331 1.20483 19.1373 1.02113H19.1384ZM3.2116 12.796L5.85693 10.2882C5.7815 9.98705 5.74233 9.67879 5.74016 9.36931C5.74016 7.03883 7.7965 5.1482 10.3333 5.1482C10.6289 5.1482 10.9161 5.17954 11.1962 5.22852L12.4393 4.05104C11.7432 3.94172 11.0389 3.88603 10.3333 3.88451C3.55467 3.88353 0 8.61599 0 9.36931C0 9.78368 1.09223 11.4177 3.2116 12.796ZM17.4582 5.94559L14.8108 8.45338C14.8821 8.74922 14.9255 9.05387 14.9255 9.36931C14.9255 11.6998 12.8702 13.5885 10.3333 13.5885C10.0399 13.5885 9.75466 13.5571 9.4767 13.5091L8.23256 14.6876C8.89596 14.7895 9.59243 14.8541 10.3333 14.8541C17.112 14.8541 20.6667 10.1197 20.6667 9.36931C20.6667 8.95395 19.5755 7.32194 17.4582 5.94559Z" fill="#343434"/>
</svg>
