<svg width="20" height="20" viewBox="0 0 20 20" fill="none" xmlns="http://www.w3.org/2000/svg">
<path d="M10 4.3999C3.439 4.3999 0 9.2319 0 9.9999C0 10.7659 3.439 15.5999 10 15.5999C16.56 15.5999 20 10.7659 20 9.9999C20 9.2319 16.56 4.3999 10 4.3999ZM10 14.3069C7.545 14.3069 5.555 12.3789 5.555 9.9999C5.555 7.6209 7.545 5.6909 10 5.6909C12.455 5.6909 14.444 7.6209 14.444 9.9999C14.444 12.3789 12.455 14.3069 10 14.3069ZM10 9.9999C9.593 9.5529 10.663 7.8459 10 7.8459C8.772 7.8459 7.777 8.8109 7.777 9.9999C7.777 11.1889 8.772 12.1539 10 12.1539C11.227 12.1539 12.223 11.1889 12.223 9.9999C12.223 9.4529 10.346 10.3789 10 9.9999Z" fill="white"/>
</svg>
