<svg width="21" height="19" viewBox="0 0 21 19" fill="none" xmlns="http://www.w3.org/2000/svg">
<path d="M19.1384 1.02107C18.9446 0.83742 18.6818 0.734253 18.4078 0.734253C18.1338 0.734253 17.871 0.83742 17.6772 1.02107L1.52933 16.3313C1.43064 16.4217 1.35192 16.5297 1.29776 16.6493C1.24361 16.7688 1.2151 16.8973 1.21391 17.0274C1.21271 17.1575 1.23886 17.2865 1.29082 17.4068C1.34277 17.5272 1.4195 17.6366 1.51652 17.7286C1.61355 17.8206 1.72892 17.8933 1.85591 17.9426C1.98291 17.9918 2.11897 18.0166 2.25618 18.0155C2.39339 18.0143 2.52898 17.9873 2.65505 17.936C2.78112 17.8846 2.89514 17.81 2.99047 17.7164L19.1373 2.40623C19.331 2.22252 19.4399 1.9734 19.4399 1.71365C19.4399 1.45389 19.331 1.20477 19.1373 1.02107H19.1384ZM3.2116 12.7959L5.85693 10.2881C5.7815 9.98699 5.74233 9.67873 5.74016 9.36925C5.74016 7.03877 7.7965 5.14814 10.3333 5.14814C10.6289 5.14814 10.9161 5.17948 11.1962 5.22846L12.4393 4.05098C11.7432 3.94166 11.0389 3.88597 10.3333 3.88445C3.55467 3.88347 0 8.61593 0 9.36925C0 9.78362 1.09223 11.4176 3.2116 12.7959ZM17.4582 5.94553L14.8108 8.45332C14.8821 8.74916 14.9255 9.05381 14.9255 9.36925C14.9255 11.6997 12.8702 13.5884 10.3333 13.5884C10.0399 13.5884 9.75466 13.557 9.4767 13.509L8.23256 14.6875C8.89596 14.7894 9.59243 14.854 10.3333 14.854C17.112 14.854 20.6667 10.1196 20.6667 9.36925C20.6667 8.95389 19.5755 7.32188 17.4582 5.94553Z" fill="white"/>
</svg>
