<svg width="30" height="30" viewBox="0 0 30 30" fill="none" xmlns="http://www.w3.org/2000/svg">
<path d="M29 15V3.33333C29 2.71449 28.7542 2.121 28.3166 1.68342C27.879 1.24583 27.2855 1 26.6667 1H3.33333C2.71449 1 2.121 1.24583 1.68342 1.68342C1.24583 2.121 1 2.71449 1 3.33333V26.6667C1 27.2855 1.24583 27.879 1.68342 28.3166C2.121 28.7542 2.71449 29 3.33333 29H15" stroke="#7E8299" stroke-width="2" stroke-linecap="round" stroke-linejoin="round"/>
<path d="M21.2218 25.889C23.7992 25.889 25.8885 23.7997 25.8885 21.2223C25.8885 18.645 23.7992 16.5557 21.2218 16.5557C18.6445 16.5557 16.5552 18.645 16.5552 21.2223C16.5552 23.7997 18.6445 25.889 21.2218 25.889Z" stroke="#7E8299" stroke-width="2"/>
<path d="M25.1113 24.3333L29.0002 27.4444" stroke="#7E8299" stroke-width="2" stroke-linecap="round" stroke-linejoin="round"/>
<path d="M7.22217 8.77759H22.7777" stroke="#7E8299" stroke-width="2" stroke-linecap="round" stroke-linejoin="round"/>
<path d="M7.22217 15H13.4444" stroke="#7E8299" stroke-width="2" stroke-linecap="round" stroke-linejoin="round"/>
</svg>
