<svg width="32" height="32" viewBox="0 0 32 32" fill="none" xmlns="http://www.w3.org/2000/svg">
<path d="M30 16V4.33333C30 3.71449 29.7542 3.121 29.3166 2.68342C28.879 2.24583 28.2855 2 27.6667 2H4.33333C3.71449 2 3.121 2.24583 2.68342 2.68342C2.24583 3.121 2 3.71449 2 4.33333V27.6667C2 28.2855 2.24583 28.879 2.68342 29.3166C3.121 29.7542 3.71449 30 4.33333 30H16" stroke="url(#paint0_linear_360_3871)" stroke-width="3" stroke-linecap="round" stroke-linejoin="round"/>
<path d="M22.2218 26.889C24.7992 26.889 26.8885 24.7997 26.8885 22.2223C26.8885 19.645 24.7992 17.5557 22.2218 17.5557C19.6445 17.5557 17.5552 19.645 17.5552 22.2223C17.5552 24.7997 19.6445 26.889 22.2218 26.889Z" stroke="url(#paint1_linear_360_3871)" stroke-width="3"/>
<path d="M26.1113 25.3333L30.0002 28.4444" stroke="url(#paint2_linear_360_3871)" stroke-width="3" stroke-linecap="round" stroke-linejoin="round"/>
<path d="M8.22217 9.77759H23.7777" stroke="url(#paint3_linear_360_3871)" stroke-width="3" stroke-linecap="round" stroke-linejoin="round"/>
<path d="M8.22217 16H14.4444" stroke="url(#paint4_linear_360_3871)" stroke-width="3" stroke-linecap="round" stroke-linejoin="round"/>
<defs>
<linearGradient id="paint0_linear_360_3871" x1="16" y1="2" x2="16" y2="30" gradientUnits="userSpaceOnUse">
<stop stop-color="#EA9769"/>
<stop offset="1" stop-color="#EA6969"/>
</linearGradient>
<linearGradient id="paint1_linear_360_3871" x1="22.2218" y1="17.5557" x2="22.2218" y2="26.889" gradientUnits="userSpaceOnUse">
<stop stop-color="#EA9769"/>
<stop offset="1" stop-color="#EA6969"/>
</linearGradient>
<linearGradient id="paint2_linear_360_3871" x1="28.0558" y1="25.3333" x2="28.0558" y2="28.4444" gradientUnits="userSpaceOnUse">
<stop stop-color="#EA9769"/>
<stop offset="1" stop-color="#EA6969"/>
</linearGradient>
<linearGradient id="paint3_linear_360_3871" x1="15.9999" y1="9.77759" x2="15.9999" y2="10.7776" gradientUnits="userSpaceOnUse">
<stop stop-color="#EA9769"/>
<stop offset="1" stop-color="#EA6969"/>
</linearGradient>
<linearGradient id="paint4_linear_360_3871" x1="11.3333" y1="16" x2="11.3333" y2="17" gradientUnits="userSpaceOnUse">
<stop stop-color="#EA9769"/>
<stop offset="1" stop-color="#EA6969"/>
</linearGradient>
</defs>
</svg>
