<svg width="24" height="24" viewBox="0 0 24 24" fill="none" xmlns="http://www.w3.org/2000/svg">
<path d="M5.25 4.5C4.25544 4.5 3.30161 4.89509 2.59835 5.59835C1.89509 6.30161 1.5 7.25544 1.5 8.25V9H22.5V8.25C22.5 7.25544 22.1049 6.30161 21.4017 5.59835C20.6984 4.89509 19.7446 4.5 18.75 4.5H5.25ZM22.5 10.5H1.5V15.75C1.5 16.7446 1.89509 17.6984 2.59835 18.4017C3.30161 19.1049 4.25544 19.5 5.25 19.5H18.75C19.7446 19.5 20.6984 19.1049 21.4017 18.4017C22.1049 17.6984 22.5 16.7446 22.5 15.75V10.5ZM15.75 15H18.75C18.9489 15 19.1397 15.079 19.2803 15.2197C19.421 15.3603 19.5 15.5511 19.5 15.75C19.5 15.9489 19.421 16.1397 19.2803 16.2803C19.1397 16.421 18.9489 16.5 18.75 16.5H15.75C15.5511 16.5 15.3603 16.421 15.2197 16.2803C15.079 16.1397 15 15.9489 15 15.75C15 15.5511 15.079 15.3603 15.2197 15.2197C15.3603 15.079 15.5511 15 15.75 15Z" fill="#3F3F46"/>
</svg>
