<svg width="8" height="5" viewBox="0 0 8 5" fill="none" xmlns="http://www.w3.org/2000/svg">
<path d="M7.4232 0.752371C7.31771 0.646918 7.17467 0.587678 7.02551 0.587678C6.87636 0.587678 6.73331 0.646918 6.62782 0.752371L3.84345 3.53675L1.05907 0.752371C0.952984 0.649907 0.810895 0.59321 0.66341 0.594492C0.515924 0.595774 0.374842 0.654931 0.27055 0.759223C0.166258 0.863515 0.107101 1.0046 0.105819 1.15208C0.104537 1.29957 0.161234 1.44166 0.263699 1.54775L3.44576 4.72981C3.55125 4.83526 3.69429 4.8945 3.84345 4.8945C3.9926 4.8945 4.13565 4.83526 4.24114 4.72981L7.4232 1.54775C7.52865 1.44226 7.58789 1.29921 7.58789 1.15006C7.58789 1.0009 7.52865 0.857855 7.4232 0.752371Z" fill="black"/>
</svg>
