<svg width="18" height="18" viewBox="0 0 18 18" fill="none" xmlns="http://www.w3.org/2000/svg">
<path d="M17.243 6.93L17.027 6.714C17.1667 6.42364 17.2146 6.09759 17.1644 5.77931C17.1141 5.46102 16.9679 5.16563 16.7455 4.9325C16.5937 4.78146 16.4115 4.66453 16.2109 4.58952C16.0104 4.5145 15.7961 4.48313 15.5825 4.4975C15.3817 4.50924 15.1846 4.55611 15 4.636V1H1V17H15V8.91L16.545 7.365L16.677 7.4965C16.6942 7.51373 16.7079 7.53419 16.7173 7.55671C16.7266 7.57923 16.7314 7.60337 16.7314 7.62775C16.7314 7.65213 16.7266 7.67627 16.7173 7.69879C16.7079 7.72131 16.6942 7.74177 16.677 7.759L15.5005 8.936C15.4254 9.01099 15.3833 9.11272 15.3832 9.21882C15.3832 9.32492 15.4253 9.42669 15.5002 9.50175C15.5752 9.57681 15.677 9.619 15.7831 9.61905C15.8892 9.61909 15.9909 9.57699 16.066 9.502L17.243 8.325C17.4278 8.13994 17.5317 7.88907 17.5317 7.6275C17.5317 7.36593 17.4278 7.11506 17.243 6.93ZM4 4.1H12.001V4.9H4V4.1ZM4 6.1H12.001V6.9H4V6.1ZM4 8.1H9.25V8.9H4V8.1ZM11.3955 14.948H7.494C7.043 14.948 6.621 14.905 6.397 14.536C6.1675 14.1585 6.3955 13.72 6.562 13.399C6.5915 13.3425 6.526 13.2725 6.451 13.35C6.231 13.576 5.881 13.983 5.5995 14.31C5.302 14.656 5.184 14.7915 5.121 14.8485C5.05435 14.9259 4.96382 14.979 4.86369 14.9992C4.76356 15.0195 4.65953 15.0059 4.568 14.9605C4.48583 14.913 4.42145 14.84 4.3847 14.7525C4.34796 14.665 4.34086 14.5679 4.3645 14.476C4.3855 14.351 4.7425 12.96 5.066 11.7095C4.636 12.473 3.271 14.7595 3.207 14.867C3.15939 14.9468 3.08205 15.0043 2.99199 15.0271C2.90192 15.0498 2.80651 15.0359 2.72675 14.9882C2.64699 14.9406 2.5894 14.8633 2.56666 14.7732C2.54392 14.6832 2.55789 14.5878 2.6055 14.508C2.623 14.4795 4.333 11.614 4.5485 11.198C4.61875 11.0317 4.7495 10.8983 4.91434 10.8247C5.07917 10.7511 5.26579 10.7428 5.4365 10.8015C5.59059 10.8641 5.71521 10.9828 5.78526 11.1337C5.85531 11.2846 5.86558 11.4564 5.814 11.6145C5.634 12.3085 5.4505 13.0205 5.309 13.5745C5.5375 13.3105 5.7765 13.0395 5.949 12.862C6.08176 12.7024 6.26316 12.5907 6.46544 12.544C6.66772 12.4973 6.87973 12.5182 7.069 12.6035C7.18661 12.6634 7.28082 12.7609 7.33663 12.8805C7.39244 13.0001 7.40665 13.1349 7.377 13.2635C7.32924 13.4228 7.26419 13.5764 7.183 13.7215C7.0495 13.999 7.113 14.2475 7.494 14.2475H11.3955C11.4883 14.2475 11.5773 14.2844 11.643 14.35C11.7086 14.4157 11.7455 14.5047 11.7455 14.5975C11.7455 14.6903 11.7086 14.7793 11.643 14.845C11.5773 14.9106 11.4883 14.948 11.3955 14.948ZM10.3555 12.423L9.0535 12.7665C9.03456 12.7719 9.01451 12.772 8.9955 12.7669C8.97648 12.7618 8.9592 12.7516 8.9455 12.7375C8.93114 12.7239 8.92078 12.7067 8.91558 12.6876C8.91038 12.6686 8.91052 12.6485 8.916 12.6295L9.248 11.33L12.543 8.035L13.643 9.135L10.3555 12.423ZM16.0885 6.6895L14.2085 8.5695L13.1085 7.4695L14.9885 5.5895C15.1566 5.41663 15.3829 5.31224 15.6235 5.2965L15.6685 5.295C15.7629 5.29331 15.8567 5.31044 15.9445 5.34537C16.0322 5.38031 16.1121 5.43237 16.1795 5.4985C16.324 5.66909 16.3955 5.88975 16.3785 6.11268C16.3614 6.3356 16.2573 6.54284 16.0885 6.6895Z" fill="url(#paint0_linear_3383_6283)"/>
<defs>
<linearGradient id="paint0_linear_3383_6283" x1="-3.13556" y1="7.64865" x2="20.2762" y2="7.7542" gradientUnits="userSpaceOnUse">
<stop stop-color="#24BCAC"/>
<stop offset="1" stop-color="#0494D4"/>
</linearGradient>
</defs>
</svg>
