<svg width="28" height="28" viewBox="0 0 28 28" fill="none" xmlns="http://www.w3.org/2000/svg">
<path d="M17.5 24.5H15.1667V22.1667H17.5V24.5ZM15.1667 16.3333H12.8333V22.1667H15.1667V16.3333ZM24.5 14H22.1667V18.6667H24.5V14ZM22.1667 11.6667H19.8333V14H22.1667V11.6667ZM8.16667 14H5.83333V16.3333H8.16667V14ZM5.83333 11.6667H3.5V14H5.83333V11.6667ZM14 5.83333H16.3333V3.5H14V5.83333ZM5.25 5.25V8.75H8.75V5.25H5.25ZM10.5 10.5H3.5V3.5H10.5V10.5ZM5.25 19.25V22.75H8.75V19.25H5.25ZM10.5 24.5H3.5V17.5H10.5V24.5ZM19.25 5.25V8.75H22.75V5.25H19.25ZM24.5 10.5H17.5V3.5H24.5V10.5ZM22.1667 22.1667V18.6667H17.5V21H19.8333V24.5H24.5V22.1667H22.1667ZM19.8333 14H15.1667V16.3333H19.8333V14ZM15.1667 11.6667H8.16667V14H10.5V16.3333H12.8333V14H15.1667V11.6667ZM16.3333 10.5V8.16667H14V5.83333H11.6667V10.5H16.3333ZM7.875 6.125H6.125V7.875H7.875V6.125ZM7.875 20.125H6.125V21.875H7.875V20.125ZM21.875 6.125H20.125V7.875H21.875V6.125Z" fill="white"/>
</svg>
