<svg width="18" height="18" viewBox="0 0 18 18" fill="none" xmlns="http://www.w3.org/2000/svg">
<path d="M1.71893 6.64467C2.05121 5.61792 2.59719 4.67318 3.32093 3.87267C3.38078 3.80653 3.45893 3.75967 3.54546 3.73804C3.63199 3.7164 3.723 3.72097 3.80693 3.75117L5.53313 4.36857C5.65602 4.41245 5.78698 4.42908 5.91693 4.41732C6.04689 4.40555 6.17274 4.36567 6.28574 4.30043C6.39875 4.23519 6.49623 4.14616 6.57141 4.03951C6.64659 3.93286 6.69767 3.81113 6.72113 3.68277L7.05053 1.87737C7.06644 1.78948 7.10814 1.70832 7.17033 1.64421C7.23251 1.5801 7.31237 1.53594 7.39973 1.51737C8.4544 1.29271 9.54456 1.29271 10.5992 1.51737C10.6864 1.5361 10.7661 1.58033 10.8281 1.64442C10.8901 1.70852 10.9317 1.7896 10.9475 1.87737L11.2778 3.68277C11.3013 3.81113 11.3524 3.93286 11.4276 4.03951C11.5027 4.14616 11.6002 4.23519 11.7132 4.30043C11.8262 4.36567 11.9521 4.40555 12.082 4.41732C12.212 4.42908 12.3429 4.41245 12.4658 4.36857L14.192 3.75117C14.276 3.72108 14.3671 3.71665 14.4536 3.73845C14.5402 3.76024 14.6183 3.80727 14.678 3.87357C15.4017 4.67382 15.9476 5.61823 16.28 6.64467C16.3075 6.72945 16.3091 6.82047 16.2848 6.90619C16.2604 6.99191 16.2111 7.06847 16.1432 7.12617L14.7437 8.31417C14.6443 8.39866 14.5645 8.50375 14.5097 8.62217C14.4549 8.74059 14.4265 8.8695 14.4265 8.99997C14.4265 9.13044 14.4549 9.25935 14.5097 9.37776C14.5645 9.49618 14.6443 9.60128 14.7437 9.68577L16.1432 10.8738C16.2111 10.9315 16.2604 11.008 16.2848 11.0937C16.3091 11.1795 16.3075 11.2705 16.28 11.3553C15.9477 12.382 15.4018 13.3267 14.678 14.1273C14.6182 14.1934 14.54 14.2403 14.4535 14.2619C14.367 14.2835 14.276 14.279 14.192 14.2488L12.4658 13.6314C12.3429 13.5875 12.212 13.5708 12.082 13.5826C11.9521 13.5944 11.8262 13.6343 11.7132 13.6995C11.6002 13.7647 11.5027 13.8538 11.4276 13.9604C11.3524 14.0671 11.3013 14.1888 11.2778 14.3172L10.9475 16.1235C10.9315 16.2111 10.8899 16.292 10.8279 16.3559C10.7659 16.4198 10.6863 16.4639 10.5992 16.4826C9.54457 16.7073 8.45439 16.7073 7.39973 16.4826C7.31237 16.464 7.23251 16.4198 7.17033 16.3557C7.10814 16.2916 7.06644 16.2105 7.05053 16.1226L6.72203 14.3172C6.69857 14.1888 6.64748 14.0671 6.57231 13.9604C6.49713 13.8538 6.39965 13.7647 6.28664 13.6995C6.17364 13.6343 6.04779 13.5944 5.91783 13.5826C5.78788 13.5708 5.65692 13.5875 5.53403 13.6314L3.80693 14.2488C3.72291 14.2789 3.63185 14.2833 3.54531 14.2615C3.45878 14.2397 3.38067 14.1927 3.32093 14.1264C2.59728 13.3261 2.0513 12.3817 1.71893 11.3553C1.6916 11.2704 1.69009 11.1793 1.71461 11.0936C1.73913 11.0079 1.78856 10.9314 1.85663 10.8738L3.25523 9.68577C3.35465 9.60128 3.43451 9.49618 3.48928 9.37776C3.54404 9.25935 3.57241 9.13044 3.57241 8.99997C3.57241 8.8695 3.54404 8.74059 3.48928 8.62217C3.43451 8.50375 3.35465 8.39866 3.25523 8.31417L1.85663 7.12617C1.78856 7.06858 1.73913 6.99207 1.71461 6.90634C1.69009 6.82061 1.6916 6.72954 1.71893 6.64467V6.64467ZM7.19993 8.99997C7.19993 9.47736 7.38957 9.93519 7.72714 10.2728C8.0647 10.6103 8.52254 10.8 8.99993 10.8C9.47732 10.8 9.93516 10.6103 10.2727 10.2728C10.6103 9.93519 10.7999 9.47736 10.7999 8.99997C10.7999 8.52258 10.6103 8.06474 10.2727 7.72717C9.93516 7.38961 9.47732 7.19997 8.99993 7.19997C8.52254 7.19997 8.0647 7.38961 7.72714 7.72717C7.38957 8.06474 7.19993 8.52258 7.19993 8.99997V8.99997Z" fill="url(#paint0_linear_3436_6620)"/>
<defs>
<linearGradient id="paint0_linear_3436_6620" x1="-1.95623" y1="7.70757" x2="18.7266" y2="7.7937" gradientUnits="userSpaceOnUse">
<stop stop-color="#24BCAC"/>
<stop offset="1" stop-color="#0494D4"/>
</linearGradient>
</defs>
</svg>
