<svg width="24" height="24" viewBox="0 0 24 24" fill="none" xmlns="http://www.w3.org/2000/svg">
<path d="M6.69999 14.7C6.51665 14.5167 6.42499 14.2834 6.42499 14C6.42499 13.7167 6.51665 13.4834 6.69999 13.3L11.3 8.70005C11.4 8.60005 11.5083 8.52905 11.625 8.48705C11.7417 8.44572 11.8667 8.42505 12 8.42505C12.1333 8.42505 12.2627 8.45005 12.388 8.50005C12.5127 8.55005 12.6167 8.61672 12.7 8.70005L17.3 13.3C17.4833 13.4834 17.575 13.7167 17.575 14C17.575 14.2834 17.4833 14.5167 17.3 14.7C17.1167 14.8834 16.8833 14.975 16.6 14.975C16.3167 14.975 16.0833 14.8834 15.9 14.7L12 10.8L8.09999 14.7C7.91665 14.8834 7.68332 14.975 7.39999 14.975C7.11665 14.975 6.88332 14.8834 6.69999 14.7V14.7Z" fill="black"/>
</svg>
