<svg width="21" height="19" viewBox="0 0 21 19" fill="none" xmlns="http://www.w3.org/2000/svg">
<path d="M2.11317 0.276895L19.4207 8.55525C19.5954 8.63888 19.7429 8.77021 19.8461 8.9341C19.9494 9.09798 20.0042 9.28772 20.0042 9.48141C20.0042 9.67511 19.9494 9.86485 19.8461 10.0287C19.7429 10.1926 19.5954 10.3239 19.4207 10.4076L2.11317 18.6859C1.93567 18.771 1.73746 18.8033 1.54214 18.7789C1.34682 18.7545 1.16263 18.6745 1.0115 18.5484C0.86037 18.4223 0.748675 18.2554 0.689719 18.0676C0.630762 17.8798 0.627027 17.679 0.67896 17.4891L2.41053 11.1411C2.43173 11.0633 2.47536 10.9935 2.53598 10.9403C2.5966 10.8871 2.67153 10.853 2.75142 10.8421L11.1382 9.70279C11.1732 9.69788 11.2063 9.68404 11.2344 9.6626C11.2624 9.64116 11.2845 9.61285 11.2984 9.5804L11.3132 9.52865C11.3197 9.48279 11.3104 9.43608 11.287 9.39612C11.2636 9.35615 11.2274 9.32528 11.1842 9.3085L11.139 9.29618L2.76046 8.15768C2.68071 8.14666 2.60596 8.11244 2.5455 8.05928C2.48503 8.00612 2.44153 7.93636 2.42039 7.85868L0.67896 1.47372C0.627027 1.28385 0.630762 1.08307 0.689719 0.895267C0.748675 0.707467 0.86037 0.540571 1.0115 0.414457C1.16263 0.288344 1.34682 0.208327 1.54214 0.183938C1.73746 0.159549 1.93567 0.191816 2.11317 0.276895Z" fill="#343434"/>
</svg>
