<svg width="25" height="24" viewBox="0 0 25 24" fill="none" xmlns="http://www.w3.org/2000/svg">
<path d="M10.6636 21.336C10.8324 21.5045 11.0611 21.5992 11.2996 21.5992C11.5381 21.5992 11.7669 21.5045 11.9356 21.336L14.9356 18.336C15.0946 18.1654 15.1811 17.9397 15.177 17.7065C15.1729 17.4734 15.0785 17.2509 14.9136 17.086C14.7487 16.9211 14.5262 16.8267 14.293 16.8226C14.0599 16.8185 13.8342 16.905 13.6636 17.064L12.1996 18.528V10.5C12.1996 10.2613 12.1048 10.0324 11.936 9.86358C11.7672 9.6948 11.5383 9.59997 11.2996 9.59997C11.0609 9.59997 10.832 9.6948 10.6632 9.86358C10.4944 10.0324 10.3996 10.2613 10.3996 10.5V18.528L8.93561 17.064C8.765 16.905 8.53934 16.8185 8.30618 16.8226C8.07302 16.8267 7.85056 16.9211 7.68566 17.086C7.52077 17.2509 7.42631 17.4734 7.4222 17.7065C7.41809 17.9397 7.50463 18.1654 7.66361 18.336L10.6636 21.336ZM7.18121 4.19998C7.31425 3.6847 7.61478 3.22826 8.03555 2.90242C8.45631 2.57659 8.97344 2.39984 9.50561 2.39997H16.1056C17.5378 2.39997 18.9113 2.9689 19.924 3.9816C20.9367 4.9943 21.5056 6.36781 21.5056 7.79997V10.5C21.5056 10.7387 21.4108 10.9676 21.242 11.1364C21.0732 11.3052 20.8443 11.4 20.6056 11.4C20.3669 11.4 20.138 11.3052 19.9692 11.1364C19.8004 10.9676 19.7056 10.7387 19.7056 10.5V7.79997C19.7056 6.8452 19.3263 5.92952 18.6512 5.25439C17.9761 4.57926 17.0604 4.19998 16.1056 4.19998H7.18121ZM5.89961 13.5C5.89961 13.7387 5.80479 13.9676 5.63601 14.1364C5.46722 14.3052 5.2383 14.4 4.99961 14.4C4.76091 14.4 4.532 14.3052 4.36321 14.1364C4.19443 13.9676 4.09961 13.7387 4.09961 13.5V7.79997C4.09961 7.16346 4.35247 6.55301 4.80255 6.10292C5.25264 5.65283 5.86309 5.39997 6.49961 5.39997H16.0996C16.7361 5.39997 17.3466 5.65283 17.7967 6.10292C18.2468 6.55301 18.4996 7.16346 18.4996 7.79997V13.5C18.4996 13.7387 18.4048 13.9676 18.236 14.1364C18.0672 14.3052 17.8383 14.4 17.5996 14.4C17.3609 14.4 17.132 14.3052 16.9632 14.1364C16.7944 13.9676 16.6996 13.7387 16.6996 13.5V7.79997C16.6996 7.64085 16.6364 7.48823 16.5239 7.37571C16.4114 7.26319 16.2587 7.19998 16.0996 7.19998H6.49961C6.34048 7.19998 6.18787 7.26319 6.07535 7.37571C5.96282 7.48823 5.89961 7.64085 5.89961 7.79997V13.5Z" fill="url(#paint0_linear_3327_6326)"/>
<defs>
<linearGradient id="paint0_linear_3327_6326" x1="-0.254674" y1="13.6211" x2="24.3955" y2="13.5236" gradientUnits="userSpaceOnUse">
<stop stop-color="#24BCAC"/>
<stop offset="1" stop-color="#0494D4"/>
</linearGradient>
</defs>
</svg>
