<svg width="25" height="24" viewBox="0 0 25 24" fill="none" xmlns="http://www.w3.org/2000/svg">
<path d="M10.6636 2.66403C10.8324 2.49549 11.0611 2.40082 11.2996 2.40082C11.5381 2.40082 11.7669 2.49549 11.9356 2.66403L14.9356 5.66403C15.0946 5.83464 15.1811 6.06029 15.177 6.29345C15.1729 6.52661 15.0785 6.74908 14.9136 6.91397C14.7487 7.07887 14.5262 7.17332 14.293 7.17744C14.0599 7.18155 13.8342 7.095 13.6636 6.93603L12.1996 5.47203V13.5C12.1996 13.7387 12.1048 13.9676 11.936 14.1364C11.7672 14.3052 11.5383 14.4 11.2996 14.4C11.0609 14.4 10.832 14.3052 10.6632 14.1364C10.4944 13.9676 10.3996 13.7387 10.3996 13.5V5.47203L8.93561 6.93603C8.765 7.095 8.53934 7.18155 8.30618 7.17744C8.07302 7.17332 7.85056 7.07887 7.68566 6.91397C7.52077 6.74908 7.42631 6.52661 7.4222 6.29345C7.41809 6.06029 7.50463 5.83464 7.66361 5.66403L10.6636 2.66403V2.66403ZM7.18121 19.8C7.31425 20.3153 7.61478 20.7717 8.03555 21.0976C8.45631 21.4234 8.97344 21.6002 9.50561 21.6H16.1056C17.5378 21.6 18.9113 21.0311 19.924 20.0184C20.9367 19.0057 21.5056 17.6322 21.5056 16.2V13.5C21.5056 13.2613 21.4108 13.0324 21.242 12.8636C21.0732 12.6948 20.8443 12.6 20.6056 12.6C20.3669 12.6 20.138 12.6948 19.9692 12.8636C19.8004 13.0324 19.7056 13.2613 19.7056 13.5V16.2C19.7056 17.1548 19.3263 18.0705 18.6512 18.7456C17.9761 19.4207 17.0604 19.8 16.1056 19.8H7.18121ZM5.89961 10.5C5.89961 10.2613 5.80479 10.0324 5.63601 9.86363C5.46722 9.69485 5.2383 9.60003 4.99961 9.60003C4.76091 9.60003 4.532 9.69485 4.36321 9.86363C4.19443 10.0324 4.09961 10.2613 4.09961 10.5V16.2C4.09961 16.8365 4.35247 17.447 4.80255 17.8971C5.25264 18.3472 5.86309 18.6 6.49961 18.6H16.0996C16.7361 18.6 17.3466 18.3472 17.7967 17.8971C18.2468 17.447 18.4996 16.8365 18.4996 16.2V10.5C18.4996 10.2613 18.4048 10.0324 18.236 9.86363C18.0672 9.69485 17.8383 9.60003 17.5996 9.60003C17.3609 9.60003 17.132 9.69485 16.9632 9.86363C16.7944 10.0324 16.6996 10.2613 16.6996 10.5V16.2C16.6996 16.3592 16.6364 16.5118 16.5239 16.6243C16.4114 16.7368 16.2587 16.8 16.0996 16.8H6.49961C6.34048 16.8 6.18787 16.7368 6.07535 16.6243C5.96282 16.5118 5.89961 16.3592 5.89961 16.2V10.5Z" fill="white"/>
</svg>
