<svg width="40" height="40" viewBox="0 0 40 40" fill="none" xmlns="http://www.w3.org/2000/svg">
<path d="M17.5 14.375H27.5" stroke="#0494D4" stroke-width="2" stroke-linecap="round" stroke-linejoin="round"/>
<path d="M17.5 20H27.5" stroke="#0494D4" stroke-width="2" stroke-linecap="round" stroke-linejoin="round"/>
<path d="M17.5 25.5469H27.5" stroke="#0494D4" stroke-width="2" stroke-linecap="round" stroke-linejoin="round"/>
<path d="M35 20.1562C35 11.875 28.2812 5.15625 20 5.15625C11.7188 5.15625 5 11.875 5 20.1562C5 28.4375 11.7188 35.1562 20 35.1562C28.2812 35.1562 35 28.4375 35 20.1562Z" stroke="#0494D4" stroke-width="2" stroke-miterlimit="10"/>
<path d="M13.125 15C13.4702 15 13.75 14.7202 13.75 14.375C13.75 14.0298 13.4702 13.75 13.125 13.75C12.7798 13.75 12.5 14.0298 12.5 14.375C12.5 14.7202 12.7798 15 13.125 15Z" stroke="#0494D4" stroke-width="2" stroke-linecap="round" stroke-linejoin="round"/>
<path d="M13.125 20.7031C13.4702 20.7031 13.75 20.4233 13.75 20.0781C13.75 19.7329 13.4702 19.4531 13.125 19.4531C12.7798 19.4531 12.5 19.7329 12.5 20.0781C12.5 20.4233 12.7798 20.7031 13.125 20.7031Z" stroke="#0494D4" stroke-width="2" stroke-linecap="round" stroke-linejoin="round"/>
<path d="M13.125 26.25C13.4702 26.25 13.75 25.9702 13.75 25.625C13.75 25.2798 13.4702 25 13.125 25C12.7798 25 12.5 25.2798 12.5 25.625C12.5 25.9702 12.7798 26.25 13.125 26.25Z" stroke="#0494D4" stroke-width="2" stroke-linecap="round" stroke-linejoin="round"/>
</svg>
