<svg width="25" height="24" viewBox="0 0 25 24" fill="none" xmlns="http://www.w3.org/2000/svg">
<path d="M3.125 4V1H5.20833V4H8.33333V6H5.20833V9H3.125V6H0V4H3.125ZM6.25 10V7H9.375V4H16.6667L18.5729 6H21.875C23.0208 6 23.9583 6.9 23.9583 8V20C23.9583 21.1 23.0208 22 21.875 22H5.20833C4.0625 22 3.125 21.1 3.125 20V10H6.25ZM13.5417 19C16.4167 19 18.75 16.76 18.75 14C18.75 11.24 16.4167 9 13.5417 9C10.6667 9 8.33333 11.24 8.33333 14C8.33333 16.76 10.6667 19 13.5417 19ZM10.2083 14C10.2083 15.77 11.6979 17.2 13.5417 17.2C15.3854 17.2 16.875 15.77 16.875 14C16.875 12.23 15.3854 10.8 13.5417 10.8C11.6979 10.8 10.2083 12.23 10.2083 14Z" fill="#ACACAC"/>
</svg>
