<svg width="25" height="24" viewBox="0 0 25 24" fill="none" xmlns="http://www.w3.org/2000/svg">
<path d="M21.7735 10.72L6.29354 2.97997C6.08471 2.88322 5.85499 2.84023 5.6253 2.85493C5.39562 2.86962 5.17325 2.94153 4.97845 3.06411C4.78365 3.18669 4.6226 3.35604 4.50996 3.55676C4.39733 3.75747 4.33668 3.98317 4.33354 4.21331V19.6866C4.33159 19.9229 4.39062 20.1556 4.50491 20.3624C4.6192 20.5691 4.7849 20.7429 4.98598 20.8669C5.18707 20.9909 5.41674 21.061 5.6528 21.0702C5.88886 21.0795 6.12333 21.0278 6.33354 20.92L21.7735 13.18C22.0023 13.0652 22.1945 12.889 22.3289 12.6712C22.4633 12.4534 22.5344 12.2026 22.5344 11.9466C22.5344 11.6907 22.4633 11.4399 22.3289 11.2221C22.1945 11.0043 22.0023 10.8281 21.7735 10.7133V10.72Z" fill="#BB2323"/>
</svg>
