<svg width="24" height="24" viewBox="0 0 24 24" fill="none" xmlns="http://www.w3.org/2000/svg">
<path d="M16 24H13.3333V21.3333H16V24ZM13.3333 14.6667H10.6667V21.3333H13.3333V14.6667ZM24 12H21.3333V17.3333H24V12ZM21.3333 9.33333H18.6667V12H21.3333V9.33333ZM5.33333 12H2.66667V14.6667H5.33333V12ZM2.66667 9.33333H0V12H2.66667V9.33333ZM12 2.66667H14.6667V0H12V2.66667ZM2 2V6H6V2H2ZM8 8H0V0H8V8ZM2 18V22H6V18H2ZM8 24H0V16H8V24ZM18 2V6H22V2H18ZM24 8H16V0H24V8ZM21.3333 21.3333V17.3333H16V20H18.6667V24H24V21.3333H21.3333ZM18.6667 12H13.3333V14.6667H18.6667V12ZM13.3333 9.33333H5.33333V12H8V14.6667H10.6667V12H13.3333V9.33333ZM14.6667 8V5.33333H12V2.66667H9.33333V8H14.6667ZM5 3H3V5H5V3ZM5 19H3V21H5V19ZM21 3H19V5H21V3Z" fill="#CD5050"/>
</svg>
