<svg width="53" height="52" viewBox="0 0 53 52" fill="none" xmlns="http://www.w3.org/2000/svg">
<g filter="url(#filter0_dd_3343_4173)">
<rect x="6.5" y="2" width="40" height="40" rx="20" fill="url(#paint0_linear_3343_4173)"/>
<path d="M22.7066 21.757C22.7996 21.8498 22.8734 21.9601 22.9237 22.0815C22.974 22.2029 22.9999 22.3331 22.9999 22.4645C22.9999 22.5959 22.974 22.726 22.9237 22.8474C22.8734 22.9688 22.7996 23.0791 22.7066 23.172L20.8796 25H30.4996C30.7648 25 31.0192 25.1053 31.2067 25.2929C31.3943 25.4804 31.4996 25.7348 31.4996 26C31.4996 26.2652 31.3943 26.5195 31.2067 26.7071C31.0192 26.8946 30.7648 27 30.4996 27H20.8796L22.7076 28.828C22.8005 28.9208 22.8743 29.0311 22.9246 29.1524C22.9749 29.2737 23.0008 29.4038 23.0008 29.5351C23.0009 29.6665 22.9751 29.7965 22.9248 29.9179C22.8746 30.0393 22.801 30.1496 22.7081 30.2425C22.6153 30.3354 22.505 30.4091 22.3837 30.4594C22.2624 30.5097 22.1323 30.5356 22.001 30.5357C21.8696 30.5357 21.7396 30.5099 21.6182 30.4597C21.4968 30.4095 21.3865 30.3358 21.2936 30.243L17.7576 26.707C17.5702 26.5194 17.4648 26.2651 17.4648 26C17.4648 25.7348 17.5702 25.4805 17.7576 25.293L21.2936 21.757C21.4812 21.5695 21.7355 21.4642 22.0006 21.4642C22.2658 21.4642 22.5201 21.5695 22.7076 21.757H22.7066ZM30.2926 13.757C30.4648 13.5848 30.6939 13.4814 30.9369 13.4661C31.18 13.4508 31.4202 13.5247 31.6126 13.674L31.7066 13.757L35.2426 17.293C35.4148 17.4652 35.5182 17.6943 35.5335 17.9373C35.5488 18.1803 35.4749 18.4206 35.3256 18.613L35.2426 18.707L31.7066 22.242C31.5267 22.4213 31.2852 22.5254 31.0312 22.5332C30.7773 22.541 30.5299 22.4518 30.3394 22.2837C30.1488 22.1157 30.0293 21.8814 30.0052 21.6285C29.9811 21.3756 30.0542 21.123 30.2096 20.922L30.2926 20.828L32.1196 19H22.4996C22.2448 18.9997 21.9996 18.9021 21.8143 18.7271C21.6289 18.5522 21.5174 18.313 21.5025 18.0586C21.4875 17.8041 21.5703 17.5536 21.7339 17.3581C21.8975 17.1627 22.1295 17.0371 22.3826 17.007L22.4996 17H32.1206L30.2926 15.17C30.1052 14.9824 29.9998 14.7281 29.9998 14.463C29.9998 14.1978 30.1052 13.9435 30.2926 13.756V13.757Z" fill="white"/>
</g>
<defs>
<filter id="filter0_dd_3343_4173" x="0.5" y="0" width="52" height="52" filterUnits="userSpaceOnUse" color-interpolation-filters="sRGB">
<feFlood flood-opacity="0" result="BackgroundImageFix"/>
<feColorMatrix in="SourceAlpha" type="matrix" values="0 0 0 0 0 0 0 0 0 0 0 0 0 0 0 0 0 0 127 0" result="hardAlpha"/>
<feOffset dy="4"/>
<feGaussianBlur stdDeviation="3"/>
<feColorMatrix type="matrix" values="0 0 0 0 0 0 0 0 0 0 0 0 0 0 0 0 0 0 0.1 0"/>
<feBlend mode="normal" in2="BackgroundImageFix" result="effect1_dropShadow_3343_4173"/>
<feColorMatrix in="SourceAlpha" type="matrix" values="0 0 0 0 0 0 0 0 0 0 0 0 0 0 0 0 0 0 127 0" result="hardAlpha"/>
<feOffset dy="2"/>
<feGaussianBlur stdDeviation="2"/>
<feColorMatrix type="matrix" values="0 0 0 0 0 0 0 0 0 0 0 0 0 0 0 0 0 0 0.06 0"/>
<feBlend mode="normal" in2="effect1_dropShadow_3343_4173" result="effect2_dropShadow_3343_4173"/>
<feBlend mode="normal" in="SourceGraphic" in2="effect2_dropShadow_3343_4173" result="shape"/>
</filter>
<linearGradient id="paint0_linear_3343_4173" x1="-3.5064" y1="18.6216" x2="53.1408" y2="18.8688" gradientUnits="userSpaceOnUse">
<stop stop-color="#24BCAC"/>
<stop offset="1" stop-color="#0494D4"/>
</linearGradient>
</defs>
</svg>
