<svg width="16" height="17" viewBox="0 0 16 17" fill="none" xmlns="http://www.w3.org/2000/svg">
<path d="M3.04619 4.40005C3.04619 3.44527 3.42548 2.5296 4.10061 1.85446C4.77574 1.17933 5.69141 0.800049 6.64619 0.800049C7.60097 0.800049 8.51664 1.17933 9.19178 1.85446C9.86691 2.5296 10.2462 3.44527 10.2462 4.40005C10.2462 5.35483 9.86691 6.2705 9.19178 6.94563C8.51664 7.62076 7.60097 8.00005 6.64619 8.00005C5.69141 8.00005 4.77574 7.62076 4.10061 6.94563C3.42548 6.2705 3.04619 5.35483 3.04619 4.40005ZM0.346191 10.7C0.346191 9.69835 1.15889 8.90005 2.15429 8.90005H7.77749C7.04455 9.78597 6.64437 10.9002 6.64619 12.05C6.64619 13.2227 7.05389 14.3 7.73519 15.1487C7.37969 15.1829 7.01519 15.2 6.64619 15.2C4.97669 15.2 3.42149 14.8526 2.26769 14.1173C1.09589 13.3703 0.346191 12.221 0.346191 10.7ZM15.6462 12.05C15.6462 13.1242 15.2195 14.1543 14.46 14.9138C13.7005 15.6734 12.6703 16.1 11.5962 16.1C10.5221 16.1 9.49193 15.6734 8.73241 14.9138C7.97289 14.1543 7.54619 13.1242 7.54619 12.05C7.54619 10.9759 7.97289 9.94579 8.73241 9.18627C9.49193 8.42674 10.5221 8.00005 11.5962 8.00005C12.6703 8.00005 13.7005 8.42674 14.46 9.18627C15.2195 9.94579 15.6462 10.9759 15.6462 12.05ZM13.2648 11.0186C13.3493 10.9342 13.3968 10.8195 13.3968 10.7C13.3968 10.5806 13.3493 10.4659 13.2648 10.3814C13.1803 10.297 13.0657 10.2495 12.9462 10.2495C12.8267 10.2495 12.7121 10.297 12.6276 10.3814L11.5962 11.4137L10.5648 10.3814C10.4803 10.297 10.3657 10.2495 10.2462 10.2495C10.1267 10.2495 10.0121 10.297 9.92759 10.3814C9.84309 10.4659 9.79562 10.5806 9.79562 10.7C9.79562 10.8195 9.84309 10.9342 9.92759 11.0186L10.9599 12.05L9.92759 13.0814C9.88575 13.1233 9.85256 13.173 9.82992 13.2276C9.80728 13.2823 9.79562 13.3409 9.79562 13.4C9.79562 13.4592 9.80728 13.5178 9.82992 13.5725C9.85256 13.6271 9.88575 13.6768 9.92759 13.7186C9.96943 13.7605 10.0191 13.7937 10.0738 13.8163C10.1284 13.839 10.187 13.8506 10.2462 13.8506C10.3054 13.8506 10.364 13.839 10.4186 13.8163C10.4733 13.7937 10.523 13.7605 10.5648 13.7186L11.5962 12.6863L12.6276 13.7186C12.6694 13.7605 12.7191 13.7937 12.7738 13.8163C12.8284 13.839 12.887 13.8506 12.9462 13.8506C13.0054 13.8506 13.064 13.839 13.1186 13.8163C13.1733 13.7937 13.223 13.7605 13.2648 13.7186C13.3066 13.6768 13.3398 13.6271 13.3625 13.5725C13.3851 13.5178 13.3968 13.4592 13.3968 13.4C13.3968 13.3409 13.3851 13.2823 13.3625 13.2276C13.3398 13.173 13.3066 13.1233 13.2648 13.0814L12.2325 12.05L13.2648 11.0186Z" fill="#CD5050"/>
</svg>
