<svg width="40" height="40" viewBox="0 0 40 40" fill="none" xmlns="http://www.w3.org/2000/svg">
<path d="M20 13.4912C16.416 13.4912 13.4912 16.416 13.4912 20C13.4912 23.584 16.416 26.5088 20 26.5088C23.584 26.5088 26.5088 23.584 26.5088 20C26.5088 16.416 23.584 13.4912 20 13.4912ZM39.5215 20C39.5215 17.3047 39.5459 14.6338 39.3945 11.9433C39.2432 8.81835 38.5303 6.04491 36.2451 3.75975C33.9551 1.46971 31.1865 0.761706 28.0615 0.610339C25.3662 0.458972 22.6953 0.483386 20.0049 0.483386C17.3096 0.483386 14.6387 0.458972 11.9482 0.610339C8.82323 0.761706 6.04979 1.4746 3.76464 3.75975C1.4746 6.04979 0.766589 8.81835 0.615222 11.9433C0.463855 14.6387 0.488269 17.3096 0.488269 20C0.488269 22.6904 0.463855 25.3662 0.615222 28.0566C0.766589 31.1816 1.47948 33.9551 3.76464 36.2402C6.05468 38.5303 8.82323 39.2383 11.9482 39.3896C14.6435 39.541 17.3144 39.5166 20.0049 39.5166C22.7002 39.5166 25.3711 39.541 28.0615 39.3896C31.1865 39.2383 33.96 38.5254 36.2451 36.2402C38.5352 33.9502 39.2432 31.1816 39.3945 28.0566C39.5508 25.3662 39.5215 22.6953 39.5215 20ZM20 30.0146C14.458 30.0146 9.98534 25.542 9.98534 20C9.98534 14.458 14.458 9.98534 20 9.98534C25.542 9.98534 30.0146 14.458 30.0146 20C30.0146 25.542 25.542 30.0146 20 30.0146ZM30.4248 11.914C29.1309 11.914 28.0859 10.8691 28.0859 9.57518C28.0859 8.28124 29.1309 7.23631 30.4248 7.23631C31.7187 7.23631 32.7637 8.28124 32.7637 9.57518C32.7641 9.88243 32.7038 10.1867 32.5864 10.4707C32.469 10.7546 32.2968 11.0126 32.0795 11.2299C31.8622 11.4471 31.6042 11.6194 31.3203 11.7368C31.0364 11.8542 30.7321 11.9144 30.4248 11.914Z" fill="url(#paint0_linear_98_3330)"/>
<defs>
<linearGradient id="paint0_linear_98_3330" x1="-9.27864" y1="16.703" x2="46.0046" y2="16.9442" gradientUnits="userSpaceOnUse">
<stop stop-color="#24BCAC"/>
<stop offset="1" stop-color="#0494D4"/>
</linearGradient>
</defs>
</svg>
