<svg width="162" height="32" viewBox="0 0 162 32" fill="none" xmlns="http://www.w3.org/2000/svg">
<path d="M12.768 8.4C13.76 9.376 14.256 10.816 14.256 12.72C14.256 14.624 13.76 16.072 12.768 17.064C11.792 18.04 10.408 18.528 8.616 18.528H5.328V24H1.992V6.912H8.616C10.408 6.912 11.792 7.408 12.768 8.4ZM10.92 12.72C10.92 10.832 10.096 9.888 8.448 9.888H5.328V15.528H8.448C9.248 15.528 9.856 15.312 10.272 14.88C10.704 14.448 10.92 13.728 10.92 12.72ZM30.0703 14.664V15.96C30.0703 18.824 29.5263 20.904 28.4383 22.2C27.3663 23.496 25.6383 24.144 23.2543 24.144C20.8703 24.144 19.1423 23.496 18.0703 22.2C17.0143 20.904 16.4863 18.8 16.4863 15.888V14.64C16.4863 11.984 17.0223 10.008 18.0943 8.712C19.1823 7.416 20.8943 6.768 23.2303 6.768C25.5823 6.768 27.3103 7.424 28.4143 8.736C29.5183 10.048 30.0703 12.024 30.0703 14.664ZM26.7343 15.888V15C26.7343 13.464 26.5423 12.24 26.1583 11.328C25.7103 10.272 24.7503 9.744 23.2783 9.744C21.7903 9.744 20.8223 10.272 20.3743 11.328C20.0063 12.192 19.8223 13.416 19.8223 15V15.888C19.8223 17.952 20.1103 19.344 20.6863 20.064C20.9103 20.368 21.2383 20.632 21.6703 20.856C22.1183 21.064 22.6463 21.168 23.2543 21.168C23.8783 21.168 24.4063 21.064 24.8383 20.856C25.2703 20.648 25.6063 20.392 25.8463 20.088C26.0863 19.784 26.2703 19.384 26.3983 18.888C26.6223 18.104 26.7343 17.104 26.7343 15.888ZM52.6196 6.912L48.0356 24H45.2516L42.1076 13.632L38.9636 24H36.1796L31.6196 6.912H35.0996L37.7396 17.688L40.3556 8.784C40.6436 7.456 41.2516 6.792 42.1796 6.792C42.6436 6.792 42.9956 6.968 43.2356 7.32C43.4756 7.656 43.6916 8.144 43.8836 8.784L46.4756 17.688L49.1396 6.912H52.6196ZM66.4849 24H60.4369C58.5169 24 57.1649 23.672 56.3809 23.016C55.6129 22.344 55.2289 21.168 55.2289 19.488V6.912H66.4849V9.888H58.5649V13.896H64.1089L63.8689 16.872H58.5649V19.248C58.5649 19.92 58.7169 20.384 59.0209 20.64C59.3249 20.896 59.8769 21.024 60.6769 21.024H66.4849V24ZM83.1761 24H79.3121L75.9761 17.664H73.5761V24H70.2401V10.584C70.2401 9.304 70.5361 8.376 71.1281 7.8C71.7201 7.208 72.7121 6.912 74.1041 6.912H76.9361C78.6321 6.912 79.9761 7.432 80.9681 8.472C81.9761 9.496 82.4801 10.8 82.4801 12.384C82.4801 13.536 82.1761 14.536 81.5681 15.384C80.9761 16.216 80.2401 16.792 79.3601 17.112L83.1761 24ZM76.7201 14.88C77.4241 14.88 78.0001 14.64 78.4481 14.16C78.9121 13.664 79.1441 13.056 79.1441 12.336C79.1441 11.6 78.9201 11.008 78.4721 10.56C78.0401 10.112 77.4561 9.888 76.7201 9.888H75.0641C74.0721 9.888 73.5761 10.392 73.5761 11.4V14.88H76.7201Z" fill="#29BFFD"/>
<path d="M93.696 14.952L99.576 24H95.688L91.656 17.544L89.328 20.664V24H85.992V6.912H89.328V16.464L95.784 6.912H99.144L93.696 14.952ZM113.689 24H107.641C105.721 24 104.369 23.672 103.585 23.016C102.817 22.344 102.433 21.168 102.433 19.488V6.912H113.689V9.888H105.769V13.896H111.313L111.073 16.872H105.769V19.248C105.769 19.92 105.921 20.384 106.225 20.64C106.529 20.896 107.081 21.024 107.881 21.024H113.689V24ZM130.38 24H126.516L123.18 17.664H120.78V24H117.444V10.584C117.444 9.304 117.74 8.376 118.332 7.8C118.924 7.208 119.916 6.912 121.308 6.912H124.14C125.836 6.912 127.18 7.432 128.172 8.472C129.18 9.496 129.684 10.8 129.684 12.384C129.684 13.536 129.38 14.536 128.772 15.384C128.18 16.216 127.444 16.792 126.564 17.112L130.38 24ZM123.924 14.88C124.628 14.88 125.204 14.64 125.652 14.16C126.116 13.664 126.348 13.056 126.348 12.336C126.348 11.6 126.124 11.008 125.676 10.56C125.244 10.112 124.66 9.888 123.924 9.888H122.268C121.276 9.888 120.78 10.392 120.78 11.4V14.88H123.924ZM144.739 9.888H140.155V24H136.819V9.888H132.259V6.912H144.739V9.888ZM160.346 14.664V15.96C160.346 18.824 159.802 20.904 158.714 22.2C157.642 23.496 155.914 24.144 153.53 24.144C151.146 24.144 149.418 23.496 148.346 22.2C147.29 20.904 146.762 18.8 146.762 15.888V14.64C146.762 11.984 147.298 10.008 148.37 8.712C149.458 7.416 151.17 6.768 153.506 6.768C155.858 6.768 157.586 7.424 158.69 8.736C159.794 10.048 160.346 12.024 160.346 14.664ZM157.01 15.888V15C157.01 13.464 156.818 12.24 156.434 11.328C155.986 10.272 155.026 9.744 153.554 9.744C152.066 9.744 151.098 10.272 150.65 11.328C150.282 12.192 150.098 13.416 150.098 15V15.888C150.098 17.952 150.386 19.344 150.962 20.064C151.186 20.368 151.514 20.632 151.946 20.856C152.394 21.064 152.922 21.168 153.53 21.168C154.154 21.168 154.682 21.064 155.114 20.856C155.546 20.648 155.882 20.392 156.122 20.088C156.362 19.784 156.546 19.384 156.674 18.888C156.898 18.104 157.01 17.104 157.01 15.888Z" fill="#181C32"/>
</svg>
