<svg width="30" height="22" viewBox="0 0 30 22" fill="none" xmlns="http://www.w3.org/2000/svg">
<g clip-path="url(#clip0_576_4058)">
<path d="M6.8182 21.7842V10.5648L3.22348 7.38167L0 5.61523V19.8042C0 20.8997 0.916992 21.7842 2.04551 21.7842H6.8182Z" fill="#4285F4"/>
<path d="M23.1816 21.784H27.9543C29.0862 21.784 29.9998 20.8963 29.9998 19.8041V5.61523L26.3487 7.63848L23.1816 10.5647V21.784Z" fill="#34A853"/>
<path d="M6.81922 10.5647L6.33008 6.18099L6.81922 1.98535L15.001 7.92497L23.1828 1.98535L23.7301 5.95448L23.1828 10.5647L15.001 16.5043L6.81922 10.5647Z" fill="#EA4335"/>
<path d="M23.1816 1.98543V10.5648L29.9998 5.61518V2.97533C29.9998 0.526959 27.1123 -0.868792 25.0909 0.599553L23.1816 1.98543Z" fill="#FBBC04"/>
<path d="M0 5.61523L3.13582 7.89176L6.8182 10.5648V1.98549L4.90898 0.599605C2.88398 -0.868853 0 0.52701 0 2.97527V5.61512V5.61523Z" fill="#C5221F"/>
</g>
<defs>
<clipPath id="clip0_576_4058">
<rect width="30" height="21.8919" fill="white"/>
</clipPath>
</defs>
</svg>
