<svg width="24" height="24" viewBox="0 0 24 24" fill="none" xmlns="http://www.w3.org/2000/svg">
<g clip-path="url(#clip0_407_5156)">
<path d="M5.96975 14.4566H16.4571V19.7164C16.4571 20.1251 16.3173 20.4693 16.0376 20.749C15.758 21.0287 15.3923 21.1793 14.9405 21.2008H5.96975L2.22655 24.2018V21.2008H1.48437C1.07563 21.2008 0.731429 21.0502 0.451765 20.749C0.172101 20.4478 0.0215126 20.1036 0 19.7164V9.97119C0 9.56245 0.150588 9.20749 0.451765 8.90632C0.752941 8.60514 1.09714 8.46531 1.48437 8.48682H5.96975V14.4566ZM22.4269 0.258255C22.8571 0.258255 23.2121 0.398087 23.4918 0.67775C23.7714 0.957414 23.9113 1.32313 23.9113 1.77489V11.4878C23.9113 11.8966 23.7714 12.2408 23.4918 12.5204C23.2121 12.8001 22.8571 12.9507 22.4269 12.9722H21.6847V15.9732L17.9415 12.9722H7.48639V1.77489C7.48639 1.34464 7.62622 0.978927 7.90588 0.67775C8.18555 0.376574 8.5405 0.236742 8.97076 0.258255H22.4269Z" fill="white"/>
</g>
<defs>
<clipPath id="clip0_407_5156">
<rect width="24" height="24" fill="white"/>
</clipPath>
</defs>
</svg>
