<svg width="30" height="30" viewBox="0 0 30 30" fill="none" xmlns="http://www.w3.org/2000/svg">
<path d="M9.52382 5.52618C9.35777 5.69189 9.22604 5.88872 9.13615 6.10541C9.04627 6.3221 9 6.55438 9 6.78897C9 7.02356 9.04627 7.25584 9.13615 7.47253C9.22604 7.68922 9.35777 7.88605 9.52382 8.05176L16.4736 15.0016L9.52382 21.9514C9.18891 22.2863 9.00076 22.7405 9.00076 23.2141C9.00076 23.6878 9.18891 24.142 9.52382 24.4769C9.85873 24.8119 10.313 25 10.7866 25C11.2602 25 11.7145 24.8119 12.0494 24.4769L20.2709 16.2554C20.437 16.0897 20.5687 15.8929 20.6586 15.6762C20.7485 15.4595 20.7948 15.2272 20.7948 14.9926C20.7948 14.758 20.7485 14.5257 20.6586 14.309C20.5687 14.0924 20.437 13.8955 20.2709 13.7298L12.0494 5.50827C11.3687 4.82762 10.2224 4.82762 9.52382 5.52618Z" fill="#B18A4F"/>
</svg>
