<svg width="24" height="24" viewBox="0 0 24 24" fill="none" xmlns="http://www.w3.org/2000/svg">
<path d="M16.5 4.38C17.6046 4.38 18.5 3.48457 18.5 2.38C18.5 1.27544 17.6046 0.380005 16.5 0.380005C15.3954 0.380005 14.5 1.27544 14.5 2.38C14.5 3.48457 15.3954 4.38 16.5 4.38Z" fill="white"/>
<path d="M24 11.88V7.17997L18.95 5.03997C17.98 4.62997 16.86 4.97997 16.3 5.87997L15.3 7.47997C14.63 8.65997 13.39 9.53997 11.89 9.79997L11.95 9.85997C12.64 10.55 13.47 10.93 14.41 11.03C15.21 10.61 15.93 10.05 16.5 9.38997L17.1 12.39L15.94 13.49L15 14.38V21.88H17V15.88L19.1 13.88L20.9 21.88H23L20.82 10.88L20.2 7.77997L22 8.47997V11.88H24ZM10.29 8.08997C10.51 8.23997 10.76 8.32997 11.01 8.37997C11.14 8.39997 11.26 8.41997 11.39 8.41997C11.52 8.41997 11.65 8.40997 11.77 8.37997C11.9 8.35997 12.02 8.31997 12.14 8.26997C12.38 8.16997 12.61 8.02997 12.8 7.82997C13.29 7.33997 13.47 6.65997 13.35 6.02997C13.28 5.65997 13.1 5.28997 12.8 4.99997C12.61 4.80997 12.38 4.65997 12.14 4.55997C12.02 4.50997 11.9 4.46997 11.77 4.44997C11.64 4.42997 11.52 4.40997 11.39 4.40997C11.27 4.40997 11.16 4.41997 11.04 4.43997C10.9 4.45997 10.76 4.49997 10.63 4.54997C10.4 4.65997 10.17 4.80997 9.97996 4.99997C9.67996 5.28997 9.49996 5.65997 9.42996 6.02997C9.30996 6.65997 9.48996 7.33997 9.97996 7.82997C10.07 7.92997 10.18 8.00997 10.29 8.08997Z" fill="white"/>
<path d="M11.2398 10.56L9.2398 8.55998C9.1398 8.45998 9.0398 8.37998 8.9298 8.29998C8.71113 8.15908 8.46622 8.06384 8.2098 8.01998C8.0798 7.98998 7.9598 7.97998 7.8298 7.97998C7.3198 7.97998 6.8098 8.17998 6.4198 8.56998L3.0798 11.91C2.6698 12.32 2.4598 12.89 2.4998 13.45C2.4998 13.63 2.5398 13.82 2.6098 14L3.6798 16.95L0.0498047 20.58L1.4598 22L5.6998 17.76V15.54L6.9998 16.75V21.88H8.9998V15.88L6.8798 13.76L9.2398 11.4L9.9498 12.11C11.2398 13.37 12.9198 14.15 14.9798 14.15L14.8398 12.08C13.3398 12.06 12.1398 11.46 11.2398 10.56Z" fill="white"/>
</svg>
