<svg width="18" height="18" viewBox="0 0 18 18" fill="none" xmlns="http://www.w3.org/2000/svg">
<path fill-rule="evenodd" clip-rule="evenodd" d="M11.3266 9.11888C11.2066 8.77965 10.9844 8.48594 10.6906 8.27821C10.3968 8.07047 10.0458 7.95892 9.68601 7.95892V7.52399H8.81615V7.95892C8.35474 7.95892 7.91223 8.14221 7.58597 8.46847C7.25971 8.79474 7.07642 9.23724 7.07642 9.69865C7.07642 10.1601 7.25971 10.6026 7.58597 10.9288C7.91223 11.2551 8.35474 11.4384 8.81615 11.4384V13.1781C8.43775 13.1781 8.11547 12.9367 7.99543 12.5983C7.97762 12.543 7.94889 12.4918 7.91093 12.4477C7.87298 12.4036 7.82658 12.3676 7.77447 12.3418C7.72236 12.316 7.6656 12.3009 7.60755 12.2974C7.5495 12.2939 7.49134 12.3021 7.4365 12.3215C7.38167 12.3408 7.33128 12.371 7.28831 12.4102C7.24534 12.4494 7.21067 12.4968 7.18634 12.5496C7.16202 12.6024 7.14853 12.6596 7.14668 12.7177C7.14483 12.7758 7.15466 12.8337 7.17558 12.888C7.29555 13.2272 7.51774 13.5209 7.81154 13.7287C8.10534 13.9364 8.45632 14.048 8.81615 14.048V14.4829H9.68601V14.048C10.1474 14.048 10.5899 13.8647 10.9162 13.5384C11.2424 13.2122 11.4257 12.7696 11.4257 12.3082C11.4257 11.8468 11.2424 11.4043 10.9162 11.0781C10.5899 10.7518 10.1474 10.5685 9.68601 10.5685V8.82878C9.8659 8.82874 10.0414 8.88447 10.1883 8.9883C10.3352 9.09213 10.4463 9.23895 10.5063 9.40855C10.5447 9.51733 10.6248 9.60639 10.7288 9.65614C10.7804 9.68078 10.8362 9.69502 10.8933 9.69806C10.9503 9.7011 11.0074 9.69288 11.0613 9.67386C11.1151 9.65484 11.1647 9.6254 11.2072 9.58721C11.2497 9.54903 11.2842 9.50285 11.3089 9.45132C11.3335 9.39978 11.3477 9.3439 11.3508 9.28686C11.3538 9.22982 11.3456 9.17274 11.3266 9.11888ZM8.81615 8.82878C8.58544 8.82878 8.36419 8.92043 8.20106 9.08356C8.03793 9.24669 7.94628 9.46795 7.94628 9.69865C7.94628 9.92935 8.03793 10.1506 8.20106 10.3137C8.36419 10.4769 8.58544 10.5685 8.81615 10.5685V8.82878ZM9.68601 13.1781C9.91671 13.1781 10.138 13.0865 10.3011 12.9233C10.4642 12.7602 10.5559 12.5389 10.5559 12.3082C10.5559 12.0775 10.4642 11.8563 10.3011 11.6932C10.138 11.53 9.91671 11.4384 9.68601 11.4384V13.1781Z" fill="url(#paint0_linear_432_67)"/>
<path fill-rule="evenodd" clip-rule="evenodd" d="M4.53342 2.13996C5.60074 1.6176 7.35178 1 9.26809 1C11.1444 1 12.8493 1.59194 13.911 2.10734L13.971 2.13648C14.2911 2.29479 14.5495 2.44441 14.7313 2.56576L13.1246 4.91439C16.8285 8.70091 19.6895 16.6563 9.26809 16.6563C-1.15332 16.6563 1.63068 8.84531 5.36675 4.91439L3.77055 2.56576C3.89363 2.48529 4.04977 2.39178 4.23592 2.29262C4.32813 2.24304 4.42729 2.19172 4.53342 2.13996ZM12.0921 4.88308L13.3782 3.00286C12.1821 3.08898 10.759 3.36995 9.389 3.76661C8.41041 4.04931 7.32308 4.00625 6.31621 3.82054C6.06248 3.7735 5.8105 3.7175 5.56073 3.65265L6.3958 4.88221C8.18555 5.51938 10.3019 5.51938 12.0921 4.88308ZM5.89345 5.62333C7.98765 6.43231 10.5046 6.43231 12.5988 5.62246C13.473 6.54395 14.2042 7.59113 14.7682 8.72918C15.3563 9.92873 15.6764 11.1278 15.6242 12.1612C15.5737 13.1585 15.1814 14.0106 14.2855 14.6438C13.3517 15.3036 11.7811 15.7864 9.26766 15.7864C6.75157 15.7864 5.17364 15.3119 4.23114 14.6595C3.32866 14.0341 2.93243 13.1938 2.87633 12.2099C2.81761 11.1879 3.13076 9.99484 3.71662 8.78703C4.2755 7.63533 5.05534 6.52669 5.89345 5.62333ZM5.39328 2.7032C5.74123 2.80671 6.10483 2.89674 6.47365 2.96502C7.40876 3.13726 8.34647 3.16248 9.14675 2.93067C10.0793 2.65898 11.0279 2.44531 11.9869 2.29088C11.1866 2.04993 10.2506 1.86986 9.26766 1.86986C7.76932 1.86986 6.37188 2.28784 5.39328 2.7032Z" fill="url(#paint1_linear_432_67)"/>
<defs>
<linearGradient id="paint0_linear_432_67" x1="9.25108" y1="7.52399" x2="9.25108" y2="14.4829" gradientUnits="userSpaceOnUse">
<stop stop-color="#24BCAC"/>
<stop offset="1" stop-color="#0494D4"/>
</linearGradient>
<linearGradient id="paint1_linear_432_67" x1="9.25" y1="1" x2="9.25" y2="16.6563" gradientUnits="userSpaceOnUse">
<stop stop-color="#24BCAC"/>
<stop offset="1" stop-color="#0494D4"/>
</linearGradient>
</defs>
</svg>
